<control>label_cc74=CutOff label_cc71=Resonance set_hdcc74=0.5 set_hdcc71=0.5 label_cc76=Vibrato Rate label_cc77=Vibrato Depth label_cc78=Vibrato Delay set_hdcc76=0.32 set_hdcc77=0.5 set_hdcc78=0.1 set_cc16=127 label_cc16=Steel Drum set_cc17=127 label_cc17=No Wave set_cc18=127 label_cc18=No Wave set_cc19=127 label_cc19=No Wave
<group>lovel=1 hivel=127 volume=12 amp_velcurve_0=0 amp_velcurve_1=1 amp_velcurve_127=1 pitch_oncc136=0 fil_type=lpf_2p cutoff=11025 cutoff_cc74=6912 cutoff_curvecc74=1 cutoff_cc133=6350 cutoff_curvecc133=133 eg4_cutoff=-6897.8267717 fil2_type=lpf_4p cutoff2=22050 eg4_sustain=4 resonance_oncc71=40 resonance_curvecc71=1 resonance=0 resonance_oncc131=0 group_amplitude=88.1889764 volume_curvecc131=201 volume_oncc131=23.015873 pan_keytrack=0 pan_oncc136=0 eg9_sustain=2 eg9_time1=0 eg9_time1_oncc78=5 eg9_level1=0 eg9_time2=0 eg9_time2_oncc78=5 eg9_level2=1 eg9_level2_oncc77=-2 lfo9_wave=1 lfo9_delay=0 lfo9_delay_oncc78=5 lfo9_fade=0 lfo9_fade_oncc78=5 lfo9_freq=0 lfo9_freq_oncc76=20 lfo9_pitch=0 lfo9_pitch_oncc77=555 lfo9_pitch_curvecc77=77 eg9_pitch_oncc77=3.5
<region>sample=../Sample/Wave1186.wav lokey=0 hikey=0 pitch_keycenter=89 tune=15 loop_mode=loop_continuous loop_start=9649 loop_end=10986 pan=0 eg2_cutoff=4864 eg2_sustain=4 eg2_time1=0 eg2_time2=0 eg2_time3=0.0489896 eg2_time4=0.1841805 eg2_time5=1.720446 eg2_level1=0 eg2_level2=1 eg2_level3=0.976378 eg2_level4=0.9055118 eg2_level5=0.8740157 eg3_amplitude=100 eg3_sustain=4 eg3_time1=0 eg3_time2=0 eg3_time3=0.4985474 eg3_time4=4.9720889 eg3_time5=3.9042474 eg3_level1=0 eg3_level2=1 eg3_level3=0.4156189 eg3_level4=0 eg3_level5=0 amplitude_cc16=92.9133858 ampeg_attack=0 ampeg_release=3.9042474 eg4_time1=0 eg4_time2=0 eg4_time3=0.4985474 eg4_time4=4.9720889 eg4_time5=3.9042474 eg4_level1=1 eg4_level2=1 eg4_level3=1 eg4_level4=1 eg4_level5=1
<region>sample=../Sample/Wave1186.wav lokey=1 hikey=1 pitch_keycenter=89 tune=15 loop_mode=loop_continuous loop_start=9649 loop_end=10986 pan=0 eg2_cutoff=4864 eg2_sustain=4 eg2_time1=0 eg2_time2=0 eg2_time3=0.0489896 eg2_time4=0.1841805 eg2_time5=1.720446 eg2_level1=0 eg2_level2=1 eg2_level3=0.976378 eg2_level4=0.9055118 eg2_level5=0.8740157 eg3_amplitude=100 eg3_sustain=4 eg3_time1=0 eg3_time2=0 eg3_time3=0.4898068 eg3_time4=4.8849178 eg3_time5=3.8357977 eg3_level1=0 eg3_level2=1 eg3_level3=0.4156189 eg3_level4=0 eg3_level5=0 amplitude_cc16=92.9133858 ampeg_attack=0 ampeg_release=3.8357977 eg4_time1=0 eg4_time2=0 eg4_time3=0.4898068 eg4_time4=4.8849178 eg4_time5=3.8357977 eg4_level1=1 eg4_level2=1 eg4_level3=1 eg4_level4=1 eg4_level5=1
<region>sample=../Sample/Wave1186.wav lokey=2 hikey=2 pitch_keycenter=89 tune=15 loop_mode=loop_continuous loop_start=9649 loop_end=10986 pan=0 eg2_cutoff=4864 eg2_sustain=4 eg2_time1=0 eg2_time2=0 eg2_time3=0.0489896 eg2_time4=0.1841805 eg2_time5=1.720446 eg2_level1=0 eg2_level2=1 eg2_level3=0.976378 eg2_level4=0.9055118 eg2_level5=0.8740157 eg3_amplitude=100 eg3_sustain=4 eg3_time1=0 eg3_time2=0 eg3_time3=0.4812195 eg3_time4=4.7992749 eg3_time5=3.7685481 eg3_level1=0 eg3_level2=1 eg3_level3=0.4156189 eg3_level4=0 eg3_level5=0 amplitude_cc16=92.9133858 ampeg_attack=0 ampeg_release=3.7685481 eg4_time1=0 eg4_time2=0 eg4_time3=0.4812195 eg4_time4=4.7992749 eg4_time5=3.7685481 eg4_level1=1 eg4_level2=1 eg4_level3=1 eg4_level4=1 eg4_level5=1
<region>sample=../Sample/Wave1186.wav lokey=3 hikey=3 pitch_keycenter=89 tune=15 loop_mode=loop_continuous loop_start=9649 loop_end=10986 pan=0 eg2_cutoff=4864 eg2_sustain=4 eg2_time1=0 eg2_time2=0 eg2_time3=0.0489896 eg2_time4=0.1841805 eg2_time5=1.720446 eg2_level1=0 eg2_level2=1 eg2_level3=0.976378 eg2_level4=0.9055118 eg2_level5=0.8740157 eg3_amplitude=100 eg3_sustain=4 eg3_time1=0 eg3_time2=0 eg3_time3=0.4727827 eg3_time4=4.7151335 eg3_time5=3.7024775 eg3_level1=0 eg3_level2=1 eg3_level3=0.4156189 eg3_level4=0 eg3_level5=0 amplitude_cc16=92.9133858 ampeg_attack=0 ampeg_release=3.7024775 eg4_time1=0 eg4_time2=0 eg4_time3=0.4727827 eg4_time4=4.7151335 eg4_time5=3.7024775 eg4_level1=1 eg4_level2=1 eg4_level3=1 eg4_level4=1 eg4_level5=1
<region>sample=../Sample/Wave1186.wav lokey=4 hikey=4 pitch_keycenter=89 tune=15 loop_mode=loop_continuous loop_start=9649 loop_end=10986 pan=0 eg2_cutoff=4864 eg2_sustain=4 eg2_time1=0 eg2_time2=0 eg2_time3=0.0489896 eg2_time4=0.1841805 eg2_time5=1.720446 eg2_level1=0 eg2_level2=1 eg2_level3=0.976378 eg2_level4=0.9055118 eg2_level5=0.8740157 eg3_amplitude=100 eg3_sustain=4 eg3_time1=0 eg3_time2=0 eg3_time3=0.4644938 eg3_time4=4.6324673 eg3_time5=3.6375653 eg3_level1=0 eg3_level2=1 eg3_level3=0.4156189 eg3_level4=0 eg3_level5=0 amplitude_cc16=92.9133858 ampeg_attack=0 ampeg_release=3.6375653 eg4_time1=0 eg4_time2=0 eg4_time3=0.4644938 eg4_time4=4.6324673 eg4_time5=3.6375653 eg4_level1=1 eg4_level2=1 eg4_level3=1 eg4_level4=1 eg4_level5=1
<region>sample=../Sample/Wave1186.wav lokey=5 hikey=5 pitch_keycenter=89 tune=15 loop_mode=loop_continuous loop_start=9649 loop_end=10986 pan=0 eg2_cutoff=4864 eg2_sustain=4 eg2_time1=0 eg2_time2=0 eg2_time3=0.0489896 eg2_time4=0.1841805 eg2_time5=1.720446 eg2_level1=0 eg2_level2=1 eg2_level3=0.976378 eg2_level4=0.9055118 eg2_level5=0.8740157 eg3_amplitude=100 eg3_sustain=4 eg3_time1=0 eg3_time2=0 eg3_time3=0.4563503 eg3_time4=4.5512504 eg3_time5=3.5737912 eg3_level1=0 eg3_level2=1 eg3_level3=0.4156189 eg3_level4=0 eg3_level5=0 amplitude_cc16=92.9133858 ampeg_attack=0 ampeg_release=3.5737912 eg4_time1=0 eg4_time2=0 eg4_time3=0.4563503 eg4_time4=4.5512504 eg4_time5=3.5737912 eg4_level1=1 eg4_level2=1 eg4_level3=1 eg4_level4=1 eg4_level5=1
<region>sample=../Sample/Wave1186.wav lokey=6 hikey=6 pitch_keycenter=89 tune=15 loop_mode=loop_continuous loop_start=9649 loop_end=10986 pan=0 eg2_cutoff=4864 eg2_sustain=4 eg2_time1=0 eg2_time2=0 eg2_time3=0.0489896 eg2_time4=0.1841805 eg2_time5=1.720446 eg2_level1=0 eg2_level2=1 eg2_level3=0.976378 eg2_level4=0.9055118 eg2_level5=0.8740157 eg3_amplitude=100 eg3_sustain=4 eg3_time1=0 eg3_time2=0 eg3_time3=0.4483495 eg3_time4=4.4714575 eg3_time5=3.5111351 eg3_level1=0 eg3_level2=1 eg3_level3=0.4156189 eg3_level4=0 eg3_level5=0 amplitude_cc16=92.9133858 ampeg_attack=0 ampeg_release=3.5111351 eg4_time1=0 eg4_time2=0 eg4_time3=0.4483495 eg4_time4=4.4714575 eg4_time5=3.5111351 eg4_level1=1 eg4_level2=1 eg4_level3=1 eg4_level4=1 eg4_level5=1
<region>sample=../Sample/Wave1186.wav lokey=7 hikey=7 pitch_keycenter=89 tune=15 loop_mode=loop_continuous loop_start=9649 loop_end=10986 pan=0 eg2_cutoff=4864 eg2_sustain=4 eg2_time1=0 eg2_time2=0 eg2_time3=0.0489896 eg2_time4=0.1841805 eg2_time5=1.720446 eg2_level1=0 eg2_level2=1 eg2_level3=0.976378 eg2_level4=0.9055118 eg2_level5=0.8740157 eg3_amplitude=100 eg3_sustain=4 eg3_time1=0 eg3_time2=0 eg3_time3=0.440489 eg3_time4=4.3930634 eg3_time5=3.4495775 eg3_level1=0 eg3_level2=1 eg3_level3=0.4156189 eg3_level4=0 eg3_level5=0 amplitude_cc16=92.9133858 ampeg_attack=0 ampeg_release=3.4495775 eg4_time1=0 eg4_time2=0 eg4_time3=0.440489 eg4_time4=4.3930634 eg4_time5=3.4495775 eg4_level1=1 eg4_level2=1 eg4_level3=1 eg4_level4=1 eg4_level5=1
<region>sample=../Sample/Wave1186.wav lokey=8 hikey=8 pitch_keycenter=89 tune=15 loop_mode=loop_continuous loop_start=9649 loop_end=10986 pan=0 eg2_cutoff=4864 eg2_sustain=4 eg2_time1=0 eg2_time2=0 eg2_time3=0.0489896 eg2_time4=0.1841805 eg2_time5=1.720446 eg2_level1=0 eg2_level2=1 eg2_level3=0.976378 eg2_level4=0.9055118 eg2_level5=0.8740157 eg3_amplitude=100 eg3_sustain=4 eg3_time1=0 eg3_time2=0 eg3_time3=0.4327663 eg3_time4=4.3160438 eg3_time5=3.3890992 eg3_level1=0 eg3_level2=1 eg3_level3=0.4156189 eg3_level4=0 eg3_level5=0 amplitude_cc16=92.9133858 ampeg_attack=0 ampeg_release=3.3890992 eg4_time1=0 eg4_time2=0 eg4_time3=0.4327663 eg4_time4=4.3160438 eg4_time5=3.3890992 eg4_level1=1 eg4_level2=1 eg4_level3=1 eg4_level4=1 eg4_level5=1
<region>sample=../Sample/Wave1186.wav lokey=9 hikey=9 pitch_keycenter=89 tune=15 loop_mode=loop_continuous loop_start=9649 loop_end=10986 pan=0 eg2_cutoff=4864 eg2_sustain=4 eg2_time1=0 eg2_time2=0 eg2_time3=0.0489896 eg2_time4=0.1841805 eg2_time5=1.720446 eg2_level1=0 eg2_level2=1 eg2_level3=0.976378 eg2_level4=0.9055118 eg2_level5=0.8740157 eg3_amplitude=100 eg3_sustain=4 eg3_time1=0 eg3_time2=0 eg3_time3=0.425179 eg3_time4=4.2403745 eg3_time5=3.3296812 eg3_level1=0 eg3_level2=1 eg3_level3=0.4156189 eg3_level4=0 eg3_level5=0 amplitude_cc16=92.9133858 ampeg_attack=0 ampeg_release=3.3296812 eg4_time1=0 eg4_time2=0 eg4_time3=0.425179 eg4_time4=4.2403745 eg4_time5=3.3296812 eg4_level1=1 eg4_level2=1 eg4_level3=1 eg4_level4=1 eg4_level5=1
<region>sample=../Sample/Wave1186.wav lokey=10 hikey=10 pitch_keycenter=89 tune=15 loop_mode=loop_continuous loop_start=9649 loop_end=10986 pan=0 eg2_cutoff=4864 eg2_sustain=4 eg2_time1=0 eg2_time2=0 eg2_time3=0.0489896 eg2_time4=0.1841805 eg2_time5=1.720446 eg2_level1=0 eg2_level2=1 eg2_level3=0.976378 eg2_level4=0.9055118 eg2_level5=0.8740157 eg3_amplitude=100 eg3_sustain=4 eg3_time1=0 eg3_time2=0 eg3_time3=0.4177247 eg3_time4=4.1660318 eg3_time5=3.2713049 eg3_level1=0 eg3_level2=1 eg3_level3=0.4156189 eg3_level4=0 eg3_level5=0 amplitude_cc16=92.9133858 ampeg_attack=0 ampeg_release=3.2713049 eg4_time1=0 eg4_time2=0 eg4_time3=0.4177247 eg4_time4=4.1660318 eg4_time5=3.2713049 eg4_level1=1 eg4_level2=1 eg4_level3=1 eg4_level4=1 eg4_level5=1
<region>sample=../Sample/Wave1186.wav lokey=11 hikey=11 pitch_keycenter=89 tune=15 loop_mode=loop_continuous loop_start=9649 loop_end=10986 pan=0 eg2_cutoff=4864 eg2_sustain=4 eg2_time1=0 eg2_time2=0 eg2_time3=0.0489896 eg2_time4=0.1841805 eg2_time5=1.720446 eg2_level1=0 eg2_level2=1 eg2_level3=0.976378 eg2_level4=0.9055118 eg2_level5=0.8740157 eg3_amplitude=100 eg3_sustain=4 eg3_time1=0 eg3_time2=0 eg3_time3=0.4104011 eg3_time4=4.0929925 eg3_time5=3.213952 eg3_level1=0 eg3_level2=1 eg3_level3=0.4156189 eg3_level4=0 eg3_level5=0 amplitude_cc16=92.9133858 ampeg_attack=0 ampeg_release=3.213952 eg4_time1=0 eg4_time2=0 eg4_time3=0.4104011 eg4_time4=4.0929925 eg4_time5=3.213952 eg4_level1=1 eg4_level2=1 eg4_level3=1 eg4_level4=1 eg4_level5=1
<region>sample=../Sample/Wave1186.wav lokey=12 hikey=12 pitch_keycenter=89 tune=15 loop_mode=loop_continuous loop_start=9649 loop_end=10986 pan=0 eg2_cutoff=4864 eg2_sustain=4 eg2_time1=0 eg2_time2=0 eg2_time3=0.0489896 eg2_time4=0.1841805 eg2_time5=1.720446 eg2_level1=0 eg2_level2=1 eg2_level3=0.976378 eg2_level4=0.9055118 eg2_level5=0.8740157 eg3_amplitude=100 eg3_sustain=4 eg3_time1=0 eg3_time2=0 eg3_time3=0.4032059 eg3_time4=4.0212337 eg3_time5=3.1576047 eg3_level1=0 eg3_level2=1 eg3_level3=0.4156189 eg3_level4=0 eg3_level5=0 amplitude_cc16=92.9133858 ampeg_attack=0 ampeg_release=3.1576047 eg4_time1=0 eg4_time2=0 eg4_time3=0.4032059 eg4_time4=4.0212337 eg4_time5=3.1576047 eg4_level1=1 eg4_level2=1 eg4_level3=1 eg4_level4=1 eg4_level5=1
<region>sample=../Sample/Wave1186.wav lokey=13 hikey=13 pitch_keycenter=89 tune=15 loop_mode=loop_continuous loop_start=9649 loop_end=10986 pan=0 eg2_cutoff=4864 eg2_sustain=4 eg2_time1=0 eg2_time2=0 eg2_time3=0.0489896 eg2_time4=0.1841805 eg2_time5=1.720446 eg2_level1=0 eg2_level2=1 eg2_level3=0.976378 eg2_level4=0.9055118 eg2_level5=0.8740157 eg3_amplitude=100 eg3_sustain=4 eg3_time1=0 eg3_time2=0 eg3_time3=0.3961369 eg3_time4=3.9507331 eg3_time5=3.1022452 eg3_level1=0 eg3_level2=1 eg3_level3=0.4156189 eg3_level4=0 eg3_level5=0 amplitude_cc16=92.9133858 ampeg_attack=0 ampeg_release=3.1022452 eg4_time1=0 eg4_time2=0 eg4_time3=0.3961369 eg4_time4=3.9507331 eg4_time5=3.1022452 eg4_level1=1 eg4_level2=1 eg4_level3=1 eg4_level4=1 eg4_level5=1
<region>sample=../Sample/Wave1186.wav lokey=14 hikey=14 pitch_keycenter=89 tune=15 loop_mode=loop_continuous loop_start=9649 loop_end=10986 pan=0 eg2_cutoff=4864 eg2_sustain=4 eg2_time1=0 eg2_time2=0 eg2_time3=0.0489896 eg2_time4=0.1841805 eg2_time5=1.720446 eg2_level1=0 eg2_level2=1 eg2_level3=0.976378 eg2_level4=0.9055118 eg2_level5=0.8740157 eg3_amplitude=100 eg3_sustain=4 eg3_time1=0 eg3_time2=0 eg3_time3=0.3891918 eg3_time4=3.8814684 eg3_time5=3.0478564 eg3_level1=0 eg3_level2=1 eg3_level3=0.4156189 eg3_level4=0 eg3_level5=0 amplitude_cc16=92.9133858 ampeg_attack=0 ampeg_release=3.0478564 eg4_time1=0 eg4_time2=0 eg4_time3=0.3891918 eg4_time4=3.8814684 eg4_time5=3.0478564 eg4_level1=1 eg4_level2=1 eg4_level3=1 eg4_level4=1 eg4_level5=1
<region>sample=../Sample/Wave1186.wav lokey=15 hikey=15 pitch_keycenter=89 tune=15 loop_mode=loop_continuous loop_start=9649 loop_end=10986 pan=0 eg2_cutoff=4864 eg2_sustain=4 eg2_time1=0 eg2_time2=0 eg2_time3=0.0489896 eg2_time4=0.1841805 eg2_time5=1.720446 eg2_level1=0 eg2_level2=1 eg2_level3=0.976378 eg2_level4=0.9055118 eg2_level5=0.8740157 eg3_amplitude=100 eg3_sustain=4 eg3_time1=0 eg3_time2=0 eg3_time3=0.3823684 eg3_time4=3.8134181 eg3_time5=2.994421 eg3_level1=0 eg3_level2=1 eg3_level3=0.4156189 eg3_level4=0 eg3_level5=0 amplitude_cc16=92.9133858 ampeg_attack=0 ampeg_release=2.994421 eg4_time1=0 eg4_time2=0 eg4_time3=0.3823684 eg4_time4=3.8134181 eg4_time5=2.994421 eg4_level1=1 eg4_level2=1 eg4_level3=1 eg4_level4=1 eg4_level5=1
<region>sample=../Sample/Wave1186.wav lokey=16 hikey=16 pitch_keycenter=89 tune=15 loop_mode=loop_continuous loop_start=9649 loop_end=10986 pan=0 eg2_cutoff=4864 eg2_sustain=4 eg2_time1=0 eg2_time2=0 eg2_time3=0.0489896 eg2_time4=0.1841805 eg2_time5=1.720446 eg2_level1=0 eg2_level2=1 eg2_level3=0.976378 eg2_level4=0.9055118 eg2_level5=0.8740157 eg3_amplitude=100 eg3_sustain=4 eg3_time1=0 eg3_time2=0 eg3_time3=0.3756647 eg3_time4=3.7465609 eg3_time5=2.9419225 eg3_level1=0 eg3_level2=1 eg3_level3=0.4156189 eg3_level4=0 eg3_level5=0 amplitude_cc16=92.9133858 ampeg_attack=0 ampeg_release=2.9419225 eg4_time1=0 eg4_time2=0 eg4_time3=0.3756647 eg4_time4=3.7465609 eg4_time5=2.9419225 eg4_level1=1 eg4_level2=1 eg4_level3=1 eg4_level4=1 eg4_level5=1
<region>sample=../Sample/Wave1186.wav lokey=17 hikey=17 pitch_keycenter=89 tune=15 loop_mode=loop_continuous loop_start=9649 loop_end=10986 pan=0 eg2_cutoff=4864 eg2_sustain=4 eg2_time1=0 eg2_time2=0 eg2_time3=0.0489896 eg2_time4=0.1841805 eg2_time5=1.720446 eg2_level1=0 eg2_level2=1 eg2_level3=0.976378 eg2_level4=0.9055118 eg2_level5=0.8740157 eg3_amplitude=100 eg3_sustain=4 eg3_time1=0 eg3_time2=0 eg3_time3=0.3690785 eg3_time4=3.6808758 eg3_time5=2.8903445 eg3_level1=0 eg3_level2=1 eg3_level3=0.4156189 eg3_level4=0 eg3_level5=0 amplitude_cc16=92.9133858 ampeg_attack=0 ampeg_release=2.8903445 eg4_time1=0 eg4_time2=0 eg4_time3=0.3690785 eg4_time4=3.6808758 eg4_time5=2.8903445 eg4_level1=1 eg4_level2=1 eg4_level3=1 eg4_level4=1 eg4_level5=1
<region>sample=../Sample/Wave1186.wav lokey=18 hikey=18 pitch_keycenter=89 tune=15 loop_mode=loop_continuous loop_start=9649 loop_end=10986 pan=0 eg2_cutoff=4864 eg2_sustain=4 eg2_time1=0 eg2_time2=0 eg2_time3=0.0489896 eg2_time4=0.1841805 eg2_time5=1.720446 eg2_level1=0 eg2_level2=1 eg2_level3=0.976378 eg2_level4=0.9055118 eg2_level5=0.8740157 eg3_amplitude=100 eg3_sustain=4 eg3_time1=0 eg3_time2=0 eg3_time3=0.3626078 eg3_time4=3.6163423 eg3_time5=2.8396706 eg3_level1=0 eg3_level2=1 eg3_level3=0.4156189 eg3_level4=0 eg3_level5=0 amplitude_cc16=92.9133858 ampeg_attack=0 ampeg_release=2.8396706 eg4_time1=0 eg4_time2=0 eg4_time3=0.3626078 eg4_time4=3.6163423 eg4_time5=2.8396706 eg4_level1=1 eg4_level2=1 eg4_level3=1 eg4_level4=1 eg4_level5=1
<region>sample=../Sample/Wave1186.wav lokey=19 hikey=19 pitch_keycenter=89 tune=15 loop_mode=loop_continuous loop_start=9649 loop_end=10986 pan=0 eg2_cutoff=4864 eg2_sustain=4 eg2_time1=0 eg2_time2=0 eg2_time3=0.0489896 eg2_time4=0.1841805 eg2_time5=1.720446 eg2_level1=0 eg2_level2=1 eg2_level3=0.976378 eg2_level4=0.9055118 eg2_level5=0.8740157 eg3_amplitude=100 eg3_sustain=4 eg3_time1=0 eg3_time2=0 eg3_time3=0.3562505 eg3_time4=3.5529402 eg3_time5=2.7898853 eg3_level1=0 eg3_level2=1 eg3_level3=0.4156189 eg3_level4=0 eg3_level5=0 amplitude_cc16=92.9133858 ampeg_attack=0 ampeg_release=2.7898853 eg4_time1=0 eg4_time2=0 eg4_time3=0.3562505 eg4_time4=3.5529402 eg4_time5=2.7898853 eg4_level1=1 eg4_level2=1 eg4_level3=1 eg4_level4=1 eg4_level5=1
<region>sample=../Sample/Wave1186.wav lokey=20 hikey=20 pitch_keycenter=89 tune=15 loop_mode=loop_continuous loop_start=9649 loop_end=10986 pan=0 eg2_cutoff=4864 eg2_sustain=4 eg2_time1=0 eg2_time2=0 eg2_time3=0.0489896 eg2_time4=0.1841805 eg2_time5=1.720446 eg2_level1=0 eg2_level2=1 eg2_level3=0.976378 eg2_level4=0.9055118 eg2_level5=0.8740157 eg3_amplitude=100 eg3_sustain=4 eg3_time1=0 eg3_time2=0 eg3_time3=0.3500047 eg3_time4=3.4906497 eg3_time5=2.7409727 eg3_level1=0 eg3_level2=1 eg3_level3=0.4156189 eg3_level4=0 eg3_level5=0 amplitude_cc16=92.9133858 ampeg_attack=0 ampeg_release=2.7409727 eg4_time1=0 eg4_time2=0 eg4_time3=0.3500047 eg4_time4=3.4906497 eg4_time5=2.7409727 eg4_level1=1 eg4_level2=1 eg4_level3=1 eg4_level4=1 eg4_level5=1
<region>sample=../Sample/Wave1186.wav lokey=21 hikey=21 pitch_keycenter=89 tune=15 loop_mode=loop_continuous loop_start=9649 loop_end=10986 pan=0 eg2_cutoff=4864 eg2_sustain=4 eg2_time1=0 eg2_time2=0 eg2_time3=0.0489896 eg2_time4=0.1841805 eg2_time5=1.720446 eg2_level1=0 eg2_level2=1 eg2_level3=0.976378 eg2_level4=0.9055118 eg2_level5=0.8740157 eg3_amplitude=100 eg3_sustain=4 eg3_time1=0 eg3_time2=0 eg3_time3=0.3438684 eg3_time4=3.4294513 eg3_time5=2.6929177 eg3_level1=0 eg3_level2=1 eg3_level3=0.4156189 eg3_level4=0 eg3_level5=0 amplitude_cc16=92.9133858 ampeg_attack=0 ampeg_release=2.6929177 eg4_time1=0 eg4_time2=0 eg4_time3=0.3438684 eg4_time4=3.4294513 eg4_time5=2.6929177 eg4_level1=1 eg4_level2=1 eg4_level3=1 eg4_level4=1 eg4_level5=1
<region>sample=../Sample/Wave1186.wav lokey=22 hikey=22 pitch_keycenter=89 tune=15 loop_mode=loop_continuous loop_start=9649 loop_end=10986 pan=0 eg2_cutoff=4864 eg2_sustain=4 eg2_time1=0 eg2_time2=0 eg2_time3=0.0489896 eg2_time4=0.1841805 eg2_time5=1.720446 eg2_level1=0 eg2_level2=1 eg2_level3=0.976378 eg2_level4=0.9055118 eg2_level5=0.8740157 eg3_amplitude=100 eg3_sustain=4 eg3_time1=0 eg3_time2=0 eg3_time3=0.3378396 eg3_time4=3.3693258 eg3_time5=2.6457052 eg3_level1=0 eg3_level2=1 eg3_level3=0.4156189 eg3_level4=0 eg3_level5=0 amplitude_cc16=92.9133858 ampeg_attack=0 ampeg_release=2.6457052 eg4_time1=0 eg4_time2=0 eg4_time3=0.3378396 eg4_time4=3.3693258 eg4_time5=2.6457052 eg4_level1=1 eg4_level2=1 eg4_level3=1 eg4_level4=1 eg4_level5=1
<region>sample=../Sample/Wave1186.wav lokey=23 hikey=23 pitch_keycenter=89 tune=15 loop_mode=loop_continuous loop_start=9649 loop_end=10986 pan=0 eg2_cutoff=4864 eg2_sustain=4 eg2_time1=0 eg2_time2=0 eg2_time3=0.0489896 eg2_time4=0.1841805 eg2_time5=1.720446 eg2_level1=0 eg2_level2=1 eg2_level3=0.976378 eg2_level4=0.9055118 eg2_level5=0.8740157 eg3_amplitude=100 eg3_sustain=4 eg3_time1=0 eg3_time2=0 eg3_time3=0.3319166 eg3_time4=3.3102545 eg3_time5=2.5993204 eg3_level1=0 eg3_level2=1 eg3_level3=0.4156189 eg3_level4=0 eg3_level5=0 amplitude_cc16=92.9133858 ampeg_attack=0 ampeg_release=2.5993204 eg4_time1=0 eg4_time2=0 eg4_time3=0.3319166 eg4_time4=3.3102545 eg4_time5=2.5993204 eg4_level1=1 eg4_level2=1 eg4_level3=1 eg4_level4=1 eg4_level5=1
<region>sample=../Sample/Wave1186.wav lokey=24 hikey=24 pitch_keycenter=89 tune=15 loop_mode=loop_continuous loop_start=9649 loop_end=10986 pan=0 eg2_cutoff=4864 eg2_sustain=4 eg2_time1=0 eg2_time2=0 eg2_time3=0.0489896 eg2_time4=0.1841805 eg2_time5=1.720446 eg2_level1=0 eg2_level2=1 eg2_level3=0.976378 eg2_level4=0.9055118 eg2_level5=0.8740157 eg3_amplitude=100 eg3_sustain=4 eg3_time1=0 eg3_time2=0 eg3_time3=0.3260974 eg3_time4=3.2522188 eg3_time5=2.5537489 eg3_level1=0 eg3_level2=1 eg3_level3=0.4156189 eg3_level4=0 eg3_level5=0 amplitude_cc16=92.9133858 ampeg_attack=0 ampeg_release=2.5537489 eg4_time1=0 eg4_time2=0 eg4_time3=0.3260974 eg4_time4=3.2522188 eg4_time5=2.5537489 eg4_level1=1 eg4_level2=1 eg4_level3=1 eg4_level4=1 eg4_level5=1
<region>sample=../Sample/Wave1186.wav lokey=25 hikey=25 pitch_keycenter=89 tune=15 loop_mode=loop_continuous loop_start=9649 loop_end=10986 pan=0 eg2_cutoff=4864 eg2_sustain=4 eg2_time1=0 eg2_time2=0 eg2_time3=0.0489896 eg2_time4=0.1841805 eg2_time5=1.720446 eg2_level1=0 eg2_level2=1 eg2_level3=0.976378 eg2_level4=0.9055118 eg2_level5=0.8740157 eg3_amplitude=100 eg3_sustain=4 eg3_time1=0 eg3_time2=0 eg3_time3=0.3203802 eg3_time4=3.1952005 eg3_time5=2.5089763 eg3_level1=0 eg3_level2=1 eg3_level3=0.4156189 eg3_level4=0 eg3_level5=0 amplitude_cc16=92.9133858 ampeg_attack=0 ampeg_release=2.5089763 eg4_time1=0 eg4_time2=0 eg4_time3=0.3203802 eg4_time4=3.1952005 eg4_time5=2.5089763 eg4_level1=1 eg4_level2=1 eg4_level3=1 eg4_level4=1 eg4_level5=1
<region>sample=../Sample/Wave1186.wav lokey=26 hikey=26 pitch_keycenter=89 tune=15 loop_mode=loop_continuous loop_start=9649 loop_end=10986 pan=0 eg2_cutoff=4864 eg2_sustain=4 eg2_time1=0 eg2_time2=0 eg2_time3=0.0489896 eg2_time4=0.1841805 eg2_time5=1.720446 eg2_level1=0 eg2_level2=1 eg2_level3=0.976378 eg2_level4=0.9055118 eg2_level5=0.8740157 eg3_amplitude=100 eg3_sustain=4 eg3_time1=0 eg3_time2=0 eg3_time3=0.3147633 eg3_time4=3.139182 eg3_time5=2.4649887 eg3_level1=0 eg3_level2=1 eg3_level3=0.4156189 eg3_level4=0 eg3_level5=0 amplitude_cc16=92.9133858 ampeg_attack=0 ampeg_release=2.4649887 eg4_time1=0 eg4_time2=0 eg4_time3=0.3147633 eg4_time4=3.139182 eg4_time5=2.4649887 eg4_level1=1 eg4_level2=1 eg4_level3=1 eg4_level4=1 eg4_level5=1
<region>sample=../Sample/Wave1186.wav lokey=27 hikey=27 pitch_keycenter=89 tune=15 loop_mode=loop_continuous loop_start=9649 loop_end=10986 pan=0 eg2_cutoff=4864 eg2_sustain=4 eg2_time1=0 eg2_time2=0 eg2_time3=0.0489896 eg2_time4=0.1841805 eg2_time5=1.720446 eg2_level1=0 eg2_level2=1 eg2_level3=0.976378 eg2_level4=0.9055118 eg2_level5=0.8740157 eg3_amplitude=100 eg3_sustain=4 eg3_time1=0 eg3_time2=0 eg3_time3=0.3092448 eg3_time4=3.0841455 eg3_time5=2.4217722 eg3_level1=0 eg3_level2=1 eg3_level3=0.4156189 eg3_level4=0 eg3_level5=0 amplitude_cc16=92.9133858 ampeg_attack=0 ampeg_release=2.4217722 eg4_time1=0 eg4_time2=0 eg4_time3=0.3092448 eg4_time4=3.0841455 eg4_time5=2.4217722 eg4_level1=1 eg4_level2=1 eg4_level3=1 eg4_level4=1 eg4_level5=1
<region>sample=../Sample/Wave1186.wav lokey=28 hikey=28 pitch_keycenter=89 tune=15 loop_mode=loop_continuous loop_start=9649 loop_end=10986 pan=0 eg2_cutoff=4864 eg2_sustain=4 eg2_time1=0 eg2_time2=0 eg2_time3=0.0489896 eg2_time4=0.1841805 eg2_time5=1.720446 eg2_level1=0 eg2_level2=1 eg2_level3=0.976378 eg2_level4=0.9055118 eg2_level5=0.8740157 eg3_amplitude=100 eg3_sustain=4 eg3_time1=0 eg3_time2=0 eg3_time3=0.3038231 eg3_time4=3.0300739 eg3_time5=2.3793135 eg3_level1=0 eg3_level2=1 eg3_level3=0.4156189 eg3_level4=0 eg3_level5=0 amplitude_cc16=92.9133858 ampeg_attack=0 ampeg_release=2.3793135 eg4_time1=0 eg4_time2=0 eg4_time3=0.3038231 eg4_time4=3.0300739 eg4_time5=2.3793135 eg4_level1=1 eg4_level2=1 eg4_level3=1 eg4_level4=1 eg4_level5=1
<region>sample=../Sample/Wave1186.wav lokey=29 hikey=29 pitch_keycenter=89 tune=15 loop_mode=loop_continuous loop_start=9649 loop_end=10986 pan=0 eg2_cutoff=4864 eg2_sustain=4 eg2_time1=0 eg2_time2=0 eg2_time3=0.0489896 eg2_time4=0.1841805 eg2_time5=1.720446 eg2_level1=0 eg2_level2=1 eg2_level3=0.976378 eg2_level4=0.9055118 eg2_level5=0.8740157 eg3_amplitude=100 eg3_sustain=4 eg3_time1=0 eg3_time2=0 eg3_time3=0.2984965 eg3_time4=2.9769504 eg3_time5=2.3375991 eg3_level1=0 eg3_level2=1 eg3_level3=0.4156189 eg3_level4=0 eg3_level5=0 amplitude_cc16=92.9133858 ampeg_attack=0 ampeg_release=2.3375991 eg4_time1=0 eg4_time2=0 eg4_time3=0.2984965 eg4_time4=2.9769504 eg4_time5=2.3375991 eg4_level1=1 eg4_level2=1 eg4_level3=1 eg4_level4=1 eg4_level5=1
<region>sample=../Sample/Wave1186.wav lokey=30 hikey=30 pitch_keycenter=89 tune=15 loop_mode=loop_continuous loop_start=9649 loop_end=10986 pan=0 eg2_cutoff=4864 eg2_sustain=4 eg2_time1=0 eg2_time2=0 eg2_time3=0.0489896 eg2_time4=0.1841805 eg2_time5=1.720446 eg2_level1=0 eg2_level2=1 eg2_level3=0.976378 eg2_level4=0.9055118 eg2_level5=0.8740157 eg3_amplitude=100 eg3_sustain=4 eg3_time1=0 eg3_time2=0 eg3_time3=0.2932632 eg3_time4=2.9247582 eg3_time5=2.2966161 eg3_level1=0 eg3_level2=1 eg3_level3=0.4156189 eg3_level4=0 eg3_level5=0 amplitude_cc16=92.9133858 ampeg_attack=0 ampeg_release=2.2966161 eg4_time1=0 eg4_time2=0 eg4_time3=0.2932632 eg4_time4=2.9247582 eg4_time5=2.2966161 eg4_level1=1 eg4_level2=1 eg4_level3=1 eg4_level4=1 eg4_level5=1
<region>sample=../Sample/Wave1186.wav lokey=31 hikey=31 pitch_keycenter=89 tune=15 loop_mode=loop_continuous loop_start=9649 loop_end=10986 pan=0 eg2_cutoff=4864 eg2_sustain=4 eg2_time1=0 eg2_time2=0 eg2_time3=0.0489896 eg2_time4=0.1841805 eg2_time5=1.720446 eg2_level1=0 eg2_level2=1 eg2_level3=0.976378 eg2_level4=0.9055118 eg2_level5=0.8740157 eg3_amplitude=100 eg3_sustain=4 eg3_time1=0 eg3_time2=0 eg3_time3=0.2881217 eg3_time4=2.873481 eg3_time5=2.2563516 eg3_level1=0 eg3_level2=1 eg3_level3=0.4156189 eg3_level4=0 eg3_level5=0 amplitude_cc16=92.9133858 ampeg_attack=0 ampeg_release=2.2563516 eg4_time1=0 eg4_time2=0 eg4_time3=0.2881217 eg4_time4=2.873481 eg4_time5=2.2563516 eg4_level1=1 eg4_level2=1 eg4_level3=1 eg4_level4=1 eg4_level5=1
<region>sample=../Sample/Wave1186.wav lokey=32 hikey=32 pitch_keycenter=89 tune=15 loop_mode=loop_continuous loop_start=9649 loop_end=10986 pan=0 eg2_cutoff=4864 eg2_sustain=4 eg2_time1=0 eg2_time2=0 eg2_time3=0.0489896 eg2_time4=0.1841805 eg2_time5=1.720446 eg2_level1=0 eg2_level2=1 eg2_level3=0.976378 eg2_level4=0.9055118 eg2_level5=0.8740157 eg3_amplitude=100 eg3_sustain=4 eg3_time1=0 eg3_time2=0 eg3_time3=0.2830703 eg3_time4=2.8231029 eg3_time5=2.216793 eg3_level1=0 eg3_level2=1 eg3_level3=0.4156189 eg3_level4=0 eg3_level5=0 amplitude_cc16=92.9133858 ampeg_attack=0 ampeg_release=2.216793 eg4_time1=0 eg4_time2=0 eg4_time3=0.2830703 eg4_time4=2.8231029 eg4_time5=2.216793 eg4_level1=1 eg4_level2=1 eg4_level3=1 eg4_level4=1 eg4_level5=1
<region>sample=../Sample/Wave1186.wav lokey=33 hikey=33 pitch_keycenter=89 tune=15 loop_mode=loop_continuous loop_start=9649 loop_end=10986 pan=0 eg2_cutoff=4864 eg2_sustain=4 eg2_time1=0 eg2_time2=0 eg2_time3=0.0489896 eg2_time4=0.1841805 eg2_time5=1.720446 eg2_level1=0 eg2_level2=1 eg2_level3=0.976378 eg2_level4=0.9055118 eg2_level5=0.8740157 eg3_amplitude=100 eg3_sustain=4 eg3_time1=0 eg3_time2=0 eg3_time3=0.2781075 eg3_time4=2.773608 eg3_time5=2.177928 eg3_level1=0 eg3_level2=1 eg3_level3=0.4156189 eg3_level4=0 eg3_level5=0 amplitude_cc16=92.9133858 ampeg_attack=0 ampeg_release=2.177928 eg4_time1=0 eg4_time2=0 eg4_time3=0.2781075 eg4_time4=2.773608 eg4_time5=2.177928 eg4_level1=1 eg4_level2=1 eg4_level3=1 eg4_level4=1 eg4_level5=1
<region>sample=../Sample/Wave1186.wav lokey=34 hikey=34 pitch_keycenter=89 tune=15 loop_mode=loop_continuous loop_start=9649 loop_end=10986 pan=0 eg2_cutoff=4864 eg2_sustain=4 eg2_time1=0 eg2_time2=0 eg2_time3=0.0489896 eg2_time4=0.1841805 eg2_time5=1.720446 eg2_level1=0 eg2_level2=1 eg2_level3=0.976378 eg2_level4=0.9055118 eg2_level5=0.8740157 eg3_amplitude=100 eg3_sustain=4 eg3_time1=0 eg3_time2=0 eg3_time3=0.2732317 eg3_time4=2.7249808 eg3_time5=2.1397443 eg3_level1=0 eg3_level2=1 eg3_level3=0.4156189 eg3_level4=0 eg3_level5=0 amplitude_cc16=92.9133858 ampeg_attack=0 ampeg_release=2.1397443 eg4_time1=0 eg4_time2=0 eg4_time3=0.2732317 eg4_time4=2.7249808 eg4_time5=2.1397443 eg4_level1=1 eg4_level2=1 eg4_level3=1 eg4_level4=1 eg4_level5=1
<region>sample=../Sample/Wave1186.wav lokey=35 hikey=35 pitch_keycenter=89 tune=15 loop_mode=loop_continuous loop_start=9649 loop_end=10986 pan=0 eg2_cutoff=4864 eg2_sustain=4 eg2_time1=0 eg2_time2=0 eg2_time3=0.0489896 eg2_time4=0.1841805 eg2_time5=1.720446 eg2_level1=0 eg2_level2=1 eg2_level3=0.976378 eg2_level4=0.9055118 eg2_level5=0.8740157 eg3_amplitude=100 eg3_sustain=4 eg3_time1=0 eg3_time2=0 eg3_time3=0.2684413 eg3_time4=2.6772061 eg3_time5=2.1022301 eg3_level1=0 eg3_level2=1 eg3_level3=0.4156189 eg3_level4=0 eg3_level5=0 amplitude_cc16=92.9133858 ampeg_attack=0 ampeg_release=2.1022301 eg4_time1=0 eg4_time2=0 eg4_time3=0.2684413 eg4_time4=2.6772061 eg4_time5=2.1022301 eg4_level1=1 eg4_level2=1 eg4_level3=1 eg4_level4=1 eg4_level5=1
<region>sample=../Sample/Wave1186.wav lokey=36 hikey=36 pitch_keycenter=89 tune=15 loop_mode=loop_continuous loop_start=9649 loop_end=10986 pan=0 eg2_cutoff=4864 eg2_sustain=4 eg2_time1=0 eg2_time2=0 eg2_time3=0.0489896 eg2_time4=0.1841805 eg2_time5=1.720446 eg2_level1=0 eg2_level2=1 eg2_level3=0.976378 eg2_level4=0.9055118 eg2_level5=0.8740157 eg3_amplitude=100 eg3_sustain=4 eg3_time1=0 eg3_time2=0 eg3_time3=0.263735 eg3_time4=2.6302691 eg3_time5=2.0653736 eg3_level1=0 eg3_level2=1 eg3_level3=0.4156189 eg3_level4=0 eg3_level5=0 amplitude_cc16=92.9133858 ampeg_attack=0 ampeg_release=2.0653736 eg4_time1=0 eg4_time2=0 eg4_time3=0.263735 eg4_time4=2.6302691 eg4_time5=2.0653736 eg4_level1=1 eg4_level2=1 eg4_level3=1 eg4_level4=1 eg4_level5=1
<region>sample=../Sample/Wave1186.wav lokey=37 hikey=37 pitch_keycenter=89 tune=15 loop_mode=loop_continuous loop_start=9649 loop_end=10986 pan=0 eg2_cutoff=4864 eg2_sustain=4 eg2_time1=0 eg2_time2=0 eg2_time3=0.0489896 eg2_time4=0.1841805 eg2_time5=1.720446 eg2_level1=0 eg2_level2=1 eg2_level3=0.976378 eg2_level4=0.9055118 eg2_level5=0.8740157 eg3_amplitude=100 eg3_sustain=4 eg3_time1=0 eg3_time2=0 eg3_time3=0.2591112 eg3_time4=2.5841549 eg3_time5=2.0291633 eg3_level1=0 eg3_level2=1 eg3_level3=0.4156189 eg3_level4=0 eg3_level5=0 amplitude_cc16=92.9133858 ampeg_attack=0 ampeg_release=2.0291633 eg4_time1=0 eg4_time2=0 eg4_time3=0.2591112 eg4_time4=2.5841549 eg4_time5=2.0291633 eg4_level1=1 eg4_level2=1 eg4_level3=1 eg4_level4=1 eg4_level5=1
<region>sample=../Sample/Wave1186.wav lokey=38 hikey=38 pitch_keycenter=89 tune=15 loop_mode=loop_continuous loop_start=9649 loop_end=10986 pan=0 eg2_cutoff=4864 eg2_sustain=4 eg2_time1=0 eg2_time2=0 eg2_time3=0.0489896 eg2_time4=0.1841805 eg2_time5=1.720446 eg2_level1=0 eg2_level2=1 eg2_level3=0.976378 eg2_level4=0.9055118 eg2_level5=0.8740157 eg3_amplitude=100 eg3_sustain=4 eg3_time1=0 eg3_time2=0 eg3_time3=0.2545684 eg3_time4=2.5388493 eg3_time5=1.9935878 eg3_level1=0 eg3_level2=1 eg3_level3=0.4156189 eg3_level4=0 eg3_level5=0 amplitude_cc16=92.9133858 ampeg_attack=0 ampeg_release=1.9935878 eg4_time1=0 eg4_time2=0 eg4_time3=0.2545684 eg4_time4=2.5388493 eg4_time5=1.9935878 eg4_level1=1 eg4_level2=1 eg4_level3=1 eg4_level4=1 eg4_level5=1
<region>sample=../Sample/Wave1186.wav lokey=39 hikey=39 pitch_keycenter=89 tune=15 loop_mode=loop_continuous loop_start=9649 loop_end=10986 pan=0 eg2_cutoff=4864 eg2_sustain=4 eg2_time1=0 eg2_time2=0 eg2_time3=0.0489896 eg2_time4=0.1841805 eg2_time5=1.720446 eg2_level1=0 eg2_level2=1 eg2_level3=0.976378 eg2_level4=0.9055118 eg2_level5=0.8740157 eg3_amplitude=100 eg3_sustain=4 eg3_time1=0 eg3_time2=0 eg3_time3=0.2501053 eg3_time4=2.4943379 eg3_time5=1.958636 eg3_level1=0 eg3_level2=1 eg3_level3=0.4156189 eg3_level4=0 eg3_level5=0 amplitude_cc16=92.9133858 ampeg_attack=0 ampeg_release=1.958636 eg4_time1=0 eg4_time2=0 eg4_time3=0.2501053 eg4_time4=2.4943379 eg4_time5=1.958636 eg4_level1=1 eg4_level2=1 eg4_level3=1 eg4_level4=1 eg4_level5=1
<region>sample=../Sample/Wave1186.wav lokey=40 hikey=40 pitch_keycenter=89 tune=15 loop_mode=loop_continuous loop_start=9649 loop_end=10986 pan=0 eg2_cutoff=4864 eg2_sustain=4 eg2_time1=0 eg2_time2=0 eg2_time3=0.0489896 eg2_time4=0.1841805 eg2_time5=1.720446 eg2_level1=0 eg2_level2=1 eg2_level3=0.976378 eg2_level4=0.9055118 eg2_level5=0.8740157 eg3_amplitude=100 eg3_sustain=4 eg3_time1=0 eg3_time2=0 eg3_time3=0.2457204 eg3_time4=2.4506069 eg3_time5=1.924297 eg3_level1=0 eg3_level2=1 eg3_level3=0.4156189 eg3_level4=0 eg3_level5=0 amplitude_cc16=92.9133858 ampeg_attack=0 ampeg_release=1.924297 eg4_time1=0 eg4_time2=0 eg4_time3=0.2457204 eg4_time4=2.4506069 eg4_time5=1.924297 eg4_level1=1 eg4_level2=1 eg4_level3=1 eg4_level4=1 eg4_level5=1
<region>sample=../Sample/Wave1186.wav lokey=41 hikey=41 pitch_keycenter=89 tune=15 loop_mode=loop_continuous loop_start=9649 loop_end=10986 pan=0 eg2_cutoff=4864 eg2_sustain=4 eg2_time1=0 eg2_time2=0 eg2_time3=0.0489896 eg2_time4=0.1841805 eg2_time5=1.720446 eg2_level1=0 eg2_level2=1 eg2_level3=0.976378 eg2_level4=0.9055118 eg2_level5=0.8740157 eg3_amplitude=100 eg3_sustain=4 eg3_time1=0 eg3_time2=0 eg3_time3=0.2414124 eg3_time4=2.4076427 eg3_time5=1.89056 eg3_level1=0 eg3_level2=1 eg3_level3=0.4156189 eg3_level4=0 eg3_level5=0 amplitude_cc16=92.9133858 ampeg_attack=0 ampeg_release=1.89056 eg4_time1=0 eg4_time2=0 eg4_time3=0.2414124 eg4_time4=2.4076427 eg4_time5=1.89056 eg4_level1=1 eg4_level2=1 eg4_level3=1 eg4_level4=1 eg4_level5=1
<region>sample=../Sample/Wave1186.wav lokey=42 hikey=42 pitch_keycenter=89 tune=15 loop_mode=loop_continuous loop_start=9649 loop_end=10986 pan=0 eg2_cutoff=4864 eg2_sustain=4 eg2_time1=0 eg2_time2=0 eg2_time3=0.0489896 eg2_time4=0.1841805 eg2_time5=1.720446 eg2_level1=0 eg2_level2=1 eg2_level3=0.976378 eg2_level4=0.9055118 eg2_level5=0.8740157 eg3_amplitude=100 eg3_sustain=4 eg3_time1=0 eg3_time2=0 eg3_time3=0.23718 eg3_time4=2.3654316 eg3_time5=1.8574145 eg3_level1=0 eg3_level2=1 eg3_level3=0.4156189 eg3_level4=0 eg3_level5=0 amplitude_cc16=92.9133858 ampeg_attack=0 ampeg_release=1.8574145 eg4_time1=0 eg4_time2=0 eg4_time3=0.23718 eg4_time4=2.3654316 eg4_time5=1.8574145 eg4_level1=1 eg4_level2=1 eg4_level3=1 eg4_level4=1 eg4_level5=1
<region>sample=../Sample/Wave1186.wav lokey=43 hikey=43 pitch_keycenter=89 tune=15 loop_mode=loop_continuous loop_start=9649 loop_end=10986 pan=0 eg2_cutoff=4864 eg2_sustain=4 eg2_time1=0 eg2_time2=0 eg2_time3=0.0489896 eg2_time4=0.1841805 eg2_time5=1.720446 eg2_level1=0 eg2_level2=1 eg2_level3=0.976378 eg2_level4=0.9055118 eg2_level5=0.8740157 eg3_amplitude=100 eg3_sustain=4 eg3_time1=0 eg3_time2=0 eg3_time3=0.2330217 eg3_time4=2.3239606 eg3_time5=1.8248501 eg3_level1=0 eg3_level2=1 eg3_level3=0.4156189 eg3_level4=0 eg3_level5=0 amplitude_cc16=92.9133858 ampeg_attack=0 ampeg_release=1.8248501 eg4_time1=0 eg4_time2=0 eg4_time3=0.2330217 eg4_time4=2.3239606 eg4_time5=1.8248501 eg4_level1=1 eg4_level2=1 eg4_level3=1 eg4_level4=1 eg4_level5=1
<region>sample=../Sample/Wave1186.wav lokey=44 hikey=44 pitch_keycenter=89 tune=15 loop_mode=loop_continuous loop_start=9649 loop_end=10986 pan=0 eg2_cutoff=4864 eg2_sustain=4 eg2_time1=0 eg2_time2=0 eg2_time3=0.0489896 eg2_time4=0.1841805 eg2_time5=1.720446 eg2_level1=0 eg2_level2=1 eg2_level3=0.976378 eg2_level4=0.9055118 eg2_level5=0.8740157 eg3_amplitude=100 eg3_sustain=4 eg3_time1=0 eg3_time2=0 eg3_time3=0.2289363 eg3_time4=2.2832167 eg3_time5=1.7928567 eg3_level1=0 eg3_level2=1 eg3_level3=0.4156189 eg3_level4=0 eg3_level5=0 amplitude_cc16=92.9133858 ampeg_attack=0 ampeg_release=1.7928567 eg4_time1=0 eg4_time2=0 eg4_time3=0.2289363 eg4_time4=2.2832167 eg4_time5=1.7928567 eg4_level1=1 eg4_level2=1 eg4_level3=1 eg4_level4=1 eg4_level5=1
<region>sample=../Sample/Wave1186.wav lokey=45 hikey=45 pitch_keycenter=89 tune=15 loop_mode=loop_continuous loop_start=9649 loop_end=10986 pan=0 eg2_cutoff=4864 eg2_sustain=4 eg2_time1=0 eg2_time2=0 eg2_time3=0.0489896 eg2_time4=0.1841805 eg2_time5=1.720446 eg2_level1=0 eg2_level2=1 eg2_level3=0.976378 eg2_level4=0.9055118 eg2_level5=0.8740157 eg3_amplitude=100 eg3_sustain=4 eg3_time1=0 eg3_time2=0 eg3_time3=0.2249226 eg3_time4=2.2431871 eg3_time5=1.7614241 eg3_level1=0 eg3_level2=1 eg3_level3=0.4156189 eg3_level4=0 eg3_level5=0 amplitude_cc16=92.9133858 ampeg_attack=0 ampeg_release=1.7614241 eg4_time1=0 eg4_time2=0 eg4_time3=0.2249226 eg4_time4=2.2431871 eg4_time5=1.7614241 eg4_level1=1 eg4_level2=1 eg4_level3=1 eg4_level4=1 eg4_level5=1
<region>sample=../Sample/Wave1186.wav lokey=46 hikey=46 pitch_keycenter=89 tune=15 loop_mode=loop_continuous loop_start=9649 loop_end=10986 pan=0 eg2_cutoff=4864 eg2_sustain=4 eg2_time1=0 eg2_time2=0 eg2_time3=0.0489896 eg2_time4=0.1841805 eg2_time5=1.720446 eg2_level1=0 eg2_level2=1 eg2_level3=0.976378 eg2_level4=0.9055118 eg2_level5=0.8740157 eg3_amplitude=100 eg3_sustain=4 eg3_time1=0 eg3_time2=0 eg3_time3=0.2209792 eg3_time4=2.2038594 eg3_time5=1.7305427 eg3_level1=0 eg3_level2=1 eg3_level3=0.4156189 eg3_level4=0 eg3_level5=0 amplitude_cc16=92.9133858 ampeg_attack=0 ampeg_release=1.7305427 eg4_time1=0 eg4_time2=0 eg4_time3=0.2209792 eg4_time4=2.2038594 eg4_time5=1.7305427 eg4_level1=1 eg4_level2=1 eg4_level3=1 eg4_level4=1 eg4_level5=1
<region>sample=../Sample/Wave1186.wav lokey=47 hikey=47 pitch_keycenter=89 tune=15 loop_mode=loop_continuous loop_start=9649 loop_end=10986 pan=0 eg2_cutoff=4864 eg2_sustain=4 eg2_time1=0 eg2_time2=0 eg2_time3=0.0489896 eg2_time4=0.1841805 eg2_time5=1.720446 eg2_level1=0 eg2_level2=1 eg2_level3=0.976378 eg2_level4=0.9055118 eg2_level5=0.8740157 eg3_amplitude=100 eg3_sustain=4 eg3_time1=0 eg3_time2=0 eg3_time3=0.217105 eg3_time4=2.1652211 eg3_time5=1.7002026 eg3_level1=0 eg3_level2=1 eg3_level3=0.4156189 eg3_level4=0 eg3_level5=0 amplitude_cc16=92.9133858 ampeg_attack=0 ampeg_release=1.7002026 eg4_time1=0 eg4_time2=0 eg4_time3=0.217105 eg4_time4=2.1652211 eg4_time5=1.7002026 eg4_level1=1 eg4_level2=1 eg4_level3=1 eg4_level4=1 eg4_level5=1
<region>sample=../Sample/Wave1186.wav lokey=48 hikey=48 pitch_keycenter=89 tune=15 loop_mode=loop_continuous loop_start=9649 loop_end=10986 pan=0 eg2_cutoff=4864 eg2_sustain=4 eg2_time1=0 eg2_time2=0 eg2_time3=0.0489896 eg2_time4=0.1841805 eg2_time5=1.720446 eg2_level1=0 eg2_level2=1 eg2_level3=0.976378 eg2_level4=0.9055118 eg2_level5=0.8740157 eg3_amplitude=100 eg3_sustain=4 eg3_time1=0 eg3_time2=0 eg3_time3=0.2132987 eg3_time4=2.1272602 eg3_time5=1.6703945 eg3_level1=0 eg3_level2=1 eg3_level3=0.4156189 eg3_level4=0 eg3_level5=0 amplitude_cc16=92.9133858 ampeg_attack=0 ampeg_release=1.6703945 eg4_time1=0 eg4_time2=0 eg4_time3=0.2132987 eg4_time4=2.1272602 eg4_time5=1.6703945 eg4_level1=1 eg4_level2=1 eg4_level3=1 eg4_level4=1 eg4_level5=1
<region>sample=../Sample/Wave1186.wav lokey=49 hikey=49 pitch_keycenter=89 tune=15 loop_mode=loop_continuous loop_start=9649 loop_end=10986 pan=0 eg2_cutoff=4864 eg2_sustain=4 eg2_time1=0 eg2_time2=0 eg2_time3=0.0489896 eg2_time4=0.1841805 eg2_time5=1.720446 eg2_level1=0 eg2_level2=1 eg2_level3=0.976378 eg2_level4=0.9055118 eg2_level5=0.8740157 eg3_amplitude=100 eg3_sustain=4 eg3_time1=0 eg3_time2=0 eg3_time3=0.2095591 eg3_time4=2.0899649 eg3_time5=1.641109 eg3_level1=0 eg3_level2=1 eg3_level3=0.4156189 eg3_level4=0 eg3_level5=0 amplitude_cc16=92.9133858 ampeg_attack=0 ampeg_release=1.641109 eg4_time1=0 eg4_time2=0 eg4_time3=0.2095591 eg4_time4=2.0899649 eg4_time5=1.641109 eg4_level1=1 eg4_level2=1 eg4_level3=1 eg4_level4=1 eg4_level5=1
<region>sample=../Sample/Wave1186.wav lokey=50 hikey=50 pitch_keycenter=89 tune=15 loop_mode=loop_continuous loop_start=9649 loop_end=10986 pan=0 eg2_cutoff=4864 eg2_sustain=4 eg2_time1=0 eg2_time2=0 eg2_time3=0.0489896 eg2_time4=0.1841805 eg2_time5=1.720446 eg2_level1=0 eg2_level2=1 eg2_level3=0.976378 eg2_level4=0.9055118 eg2_level5=0.8740157 eg3_amplitude=100 eg3_sustain=4 eg3_time1=0 eg3_time2=0 eg3_time3=0.2058851 eg3_time4=2.0533234 eg3_time5=1.6123369 eg3_level1=0 eg3_level2=1 eg3_level3=0.4156189 eg3_level4=0 eg3_level5=0 amplitude_cc16=92.9133858 ampeg_attack=0 ampeg_release=1.6123369 eg4_time1=0 eg4_time2=0 eg4_time3=0.2058851 eg4_time4=2.0533234 eg4_time5=1.6123369 eg4_level1=1 eg4_level2=1 eg4_level3=1 eg4_level4=1 eg4_level5=1
<region>sample=../Sample/Wave1186.wav lokey=51 hikey=51 pitch_keycenter=89 tune=15 loop_mode=loop_continuous loop_start=9649 loop_end=10986 pan=0 eg2_cutoff=4864 eg2_sustain=4 eg2_time1=0 eg2_time2=0 eg2_time3=0.0489896 eg2_time4=0.1841805 eg2_time5=1.720446 eg2_level1=0 eg2_level2=1 eg2_level3=0.976378 eg2_level4=0.9055118 eg2_level5=0.8740157 eg3_amplitude=100 eg3_sustain=4 eg3_time1=0 eg3_time2=0 eg3_time3=0.2022755 eg3_time4=2.0173243 eg3_time5=1.5840692 eg3_level1=0 eg3_level2=1 eg3_level3=0.4156189 eg3_level4=0 eg3_level5=0 amplitude_cc16=92.9133858 ampeg_attack=0 ampeg_release=1.5840692 eg4_time1=0 eg4_time2=0 eg4_time3=0.2022755 eg4_time4=2.0173243 eg4_time5=1.5840692 eg4_level1=1 eg4_level2=1 eg4_level3=1 eg4_level4=1 eg4_level5=1
<region>sample=../Sample/Wave1186.wav lokey=52 hikey=52 pitch_keycenter=89 tune=15 loop_mode=loop_continuous loop_start=9649 loop_end=10986 pan=0 eg2_cutoff=4864 eg2_sustain=4 eg2_time1=0 eg2_time2=0 eg2_time3=0.0489896 eg2_time4=0.1841805 eg2_time5=1.720446 eg2_level1=0 eg2_level2=1 eg2_level3=0.976378 eg2_level4=0.9055118 eg2_level5=0.8740157 eg3_amplitude=100 eg3_sustain=4 eg3_time1=0 eg3_time2=0 eg3_time3=0.1987292 eg3_time4=1.9819564 eg3_time5=1.5562972 eg3_level1=0 eg3_level2=1 eg3_level3=0.4156189 eg3_level4=0 eg3_level5=0 amplitude_cc16=92.9133858 ampeg_attack=0 ampeg_release=1.5562972 eg4_time1=0 eg4_time2=0 eg4_time3=0.1987292 eg4_time4=1.9819564 eg4_time5=1.5562972 eg4_level1=1 eg4_level2=1 eg4_level3=1 eg4_level4=1 eg4_level5=1
<region>sample=../Sample/Wave1186.wav lokey=53 hikey=53 pitch_keycenter=89 tune=15 loop_mode=loop_continuous loop_start=9649 loop_end=10986 pan=0 eg2_cutoff=4864 eg2_sustain=4 eg2_time1=0 eg2_time2=0 eg2_time3=0.0489896 eg2_time4=0.1841805 eg2_time5=1.720446 eg2_level1=0 eg2_level2=1 eg2_level3=0.976378 eg2_level4=0.9055118 eg2_level5=0.8740157 eg3_amplitude=100 eg3_sustain=4 eg3_time1=0 eg3_time2=0 eg3_time3=0.1952451 eg3_time4=1.9472085 eg3_time5=1.529012 eg3_level1=0 eg3_level2=1 eg3_level3=0.4156189 eg3_level4=0 eg3_level5=0 amplitude_cc16=92.9133858 ampeg_attack=0 ampeg_release=1.529012 eg4_time1=0 eg4_time2=0 eg4_time3=0.1952451 eg4_time4=1.9472085 eg4_time5=1.529012 eg4_level1=1 eg4_level2=1 eg4_level3=1 eg4_level4=1 eg4_level5=1
<region>sample=../Sample/Wave1186.wav lokey=54 hikey=54 pitch_keycenter=89 tune=15 loop_mode=loop_continuous loop_start=9649 loop_end=10986 pan=0 eg2_cutoff=4864 eg2_sustain=4 eg2_time1=0 eg2_time2=0 eg2_time3=0.0489896 eg2_time4=0.1841805 eg2_time5=1.720446 eg2_level1=0 eg2_level2=1 eg2_level3=0.976378 eg2_level4=0.9055118 eg2_level5=0.8740157 eg3_amplitude=100 eg3_sustain=4 eg3_time1=0 eg3_time2=0 eg3_time3=0.191822 eg3_time4=1.9130699 eg3_time5=1.5022052 eg3_level1=0 eg3_level2=1 eg3_level3=0.4156189 eg3_level4=0 eg3_level5=0 amplitude_cc16=92.9133858 ampeg_attack=0 ampeg_release=1.5022052 eg4_time1=0 eg4_time2=0 eg4_time3=0.191822 eg4_time4=1.9130699 eg4_time5=1.5022052 eg4_level1=1 eg4_level2=1 eg4_level3=1 eg4_level4=1 eg4_level5=1
<region>sample=../Sample/Wave1186.wav lokey=55 hikey=55 pitch_keycenter=89 tune=15 loop_mode=loop_continuous loop_start=9649 loop_end=10986 pan=0 eg2_cutoff=4864 eg2_sustain=4 eg2_time1=0 eg2_time2=0 eg2_time3=0.0489896 eg2_time4=0.1841805 eg2_time5=1.720446 eg2_level1=0 eg2_level2=1 eg2_level3=0.976378 eg2_level4=0.9055118 eg2_level5=0.8740157 eg3_amplitude=100 eg3_sustain=4 eg3_time1=0 eg3_time2=0 eg3_time3=0.188459 eg3_time4=1.8795297 eg3_time5=1.4758684 eg3_level1=0 eg3_level2=1 eg3_level3=0.4156189 eg3_level4=0 eg3_level5=0 amplitude_cc16=92.9133858 ampeg_attack=0 ampeg_release=1.4758684 eg4_time1=0 eg4_time2=0 eg4_time3=0.188459 eg4_time4=1.8795297 eg4_time5=1.4758684 eg4_level1=1 eg4_level2=1 eg4_level3=1 eg4_level4=1 eg4_level5=1
<region>sample=../Sample/Wave1186.wav lokey=56 hikey=56 pitch_keycenter=89 tune=15 loop_mode=loop_continuous loop_start=9649 loop_end=10986 pan=0 eg2_cutoff=4864 eg2_sustain=4 eg2_time1=0 eg2_time2=0 eg2_time3=0.0489896 eg2_time4=0.1841805 eg2_time5=1.720446 eg2_level1=0 eg2_level2=1 eg2_level3=0.976378 eg2_level4=0.9055118 eg2_level5=0.8740157 eg3_amplitude=100 eg3_sustain=4 eg3_time1=0 eg3_time2=0 eg3_time3=0.1851549 eg3_time4=1.8465776 eg3_time5=1.4499933 eg3_level1=0 eg3_level2=1 eg3_level3=0.4156189 eg3_level4=0 eg3_level5=0 amplitude_cc16=92.9133858 ampeg_attack=0 ampeg_release=1.4499933 eg4_time1=0 eg4_time2=0 eg4_time3=0.1851549 eg4_time4=1.8465776 eg4_time5=1.4499933 eg4_level1=1 eg4_level2=1 eg4_level3=1 eg4_level4=1 eg4_level5=1
<region>sample=../Sample/Wave1186.wav lokey=57 hikey=57 pitch_keycenter=89 tune=15 loop_mode=loop_continuous loop_start=9649 loop_end=10986 pan=0 eg2_cutoff=4864 eg2_sustain=4 eg2_time1=0 eg2_time2=0 eg2_time3=0.0489896 eg2_time4=0.1841805 eg2_time5=1.720446 eg2_level1=0 eg2_level2=1 eg2_level3=0.976378 eg2_level4=0.9055118 eg2_level5=0.8740157 eg3_amplitude=100 eg3_sustain=4 eg3_time1=0 eg3_time2=0 eg3_time3=0.1819087 eg3_time4=1.8142032 eg3_time5=1.4245719 eg3_level1=0 eg3_level2=1 eg3_level3=0.4156189 eg3_level4=0 eg3_level5=0 amplitude_cc16=92.9133858 ampeg_attack=0 ampeg_release=1.4245719 eg4_time1=0 eg4_time2=0 eg4_time3=0.1819087 eg4_time4=1.8142032 eg4_time5=1.4245719 eg4_level1=1 eg4_level2=1 eg4_level3=1 eg4_level4=1 eg4_level5=1
<region>sample=../Sample/Wave1186.wav lokey=58 hikey=58 pitch_keycenter=89 tune=15 loop_mode=loop_continuous loop_start=9649 loop_end=10986 pan=0 eg2_cutoff=4864 eg2_sustain=4 eg2_time1=0 eg2_time2=0 eg2_time3=0.0489896 eg2_time4=0.1841805 eg2_time5=1.720446 eg2_level1=0 eg2_level2=1 eg2_level3=0.976378 eg2_level4=0.9055118 eg2_level5=0.8740157 eg3_amplitude=100 eg3_sustain=4 eg3_time1=0 eg3_time2=0 eg3_time3=0.1787195 eg3_time4=1.7823964 eg3_time5=1.3995962 eg3_level1=0 eg3_level2=1 eg3_level3=0.4156189 eg3_level4=0 eg3_level5=0 amplitude_cc16=92.9133858 ampeg_attack=0 ampeg_release=1.3995962 eg4_time1=0 eg4_time2=0 eg4_time3=0.1787195 eg4_time4=1.7823964 eg4_time5=1.3995962 eg4_level1=1 eg4_level2=1 eg4_level3=1 eg4_level4=1 eg4_level5=1
<region>sample=../Sample/Wave1186.wav lokey=59 hikey=59 pitch_keycenter=89 tune=15 loop_mode=loop_continuous loop_start=9649 loop_end=10986 pan=0 eg2_cutoff=4864 eg2_sustain=4 eg2_time1=0 eg2_time2=0 eg2_time3=0.0489896 eg2_time4=0.1841805 eg2_time5=1.720446 eg2_level1=0 eg2_level2=1 eg2_level3=0.976378 eg2_level4=0.9055118 eg2_level5=0.8740157 eg3_amplitude=100 eg3_sustain=4 eg3_time1=0 eg3_time2=0 eg3_time3=0.1755861 eg3_time4=1.7511473 eg3_time5=1.3750583 eg3_level1=0 eg3_level2=1 eg3_level3=0.4156189 eg3_level4=0 eg3_level5=0 amplitude_cc16=92.9133858 ampeg_attack=0 ampeg_release=1.3750583 eg4_time1=0 eg4_time2=0 eg4_time3=0.1755861 eg4_time4=1.7511473 eg4_time5=1.3750583 eg4_level1=1 eg4_level2=1 eg4_level3=1 eg4_level4=1 eg4_level5=1
<region>sample=../Sample/Wave1186.wav lokey=60 hikey=60 pitch_keycenter=89 tune=15 loop_mode=loop_continuous loop_start=9649 loop_end=10986 pan=0 eg2_cutoff=4864 eg2_sustain=4 eg2_time1=0 eg2_time2=0 eg2_time3=0.0489896 eg2_time4=0.1841805 eg2_time5=1.720446 eg2_level1=0 eg2_level2=1 eg2_level3=0.976378 eg2_level4=0.9055118 eg2_level5=0.8740157 eg3_amplitude=100 eg3_sustain=4 eg3_time1=0 eg3_time2=0 eg3_time3=0.1725078 eg3_time4=1.720446 eg3_time5=1.3509506 eg3_level1=0 eg3_level2=1 eg3_level3=0.4156189 eg3_level4=0 eg3_level5=0 amplitude_cc16=92.9133858 ampeg_attack=0 ampeg_release=1.3509506 eg4_time1=0 eg4_time2=0 eg4_time3=0.1725078 eg4_time4=1.720446 eg4_time5=1.3509506 eg4_level1=1 eg4_level2=1 eg4_level3=1 eg4_level4=1 eg4_level5=1
<region>sample=../Sample/Wave1186.wav lokey=61 hikey=61 pitch_keycenter=89 tune=15 loop_mode=loop_continuous loop_start=9649 loop_end=10986 pan=0 eg2_cutoff=4864 eg2_sustain=4 eg2_time1=0 eg2_time2=0 eg2_time3=0.0489896 eg2_time4=0.1841805 eg2_time5=1.720446 eg2_level1=0 eg2_level2=1 eg2_level3=0.976378 eg2_level4=0.9055118 eg2_level5=0.8740157 eg3_amplitude=100 eg3_sustain=4 eg3_time1=0 eg3_time2=0 eg3_time3=0.1694833 eg3_time4=1.690283 eg3_time5=1.3272656 eg3_level1=0 eg3_level2=1 eg3_level3=0.4156189 eg3_level4=0 eg3_level5=0 amplitude_cc16=91.3648294 ampeg_attack=0 ampeg_release=1.3272656 eg4_time1=0 eg4_time2=0 eg4_time3=0.1694833 eg4_time4=1.690283 eg4_time5=1.3272656 eg4_level1=1 eg4_level2=1 eg4_level3=1 eg4_level4=1 eg4_level5=1
<region>sample=../Sample/Wave1186.wav lokey=62 hikey=62 pitch_keycenter=89 tune=15 loop_mode=loop_continuous loop_start=9649 loop_end=10986 pan=0 eg2_cutoff=4864 eg2_sustain=4 eg2_time1=0 eg2_time2=0 eg2_time3=0.0489896 eg2_time4=0.1841805 eg2_time5=1.720446 eg2_level1=0 eg2_level2=1 eg2_level3=0.976378 eg2_level4=0.9055118 eg2_level5=0.8740157 eg3_amplitude=100 eg3_sustain=4 eg3_time1=0 eg3_time2=0 eg3_time3=0.1665119 eg3_time4=1.6606488 eg3_time5=1.3039959 eg3_level1=0 eg3_level2=1 eg3_level3=0.4156189 eg3_level4=0 eg3_level5=0 amplitude_cc16=89.816273 ampeg_attack=0 ampeg_release=1.3039959 eg4_time1=0 eg4_time2=0 eg4_time3=0.1665119 eg4_time4=1.6606488 eg4_time5=1.3039959 eg4_level1=1 eg4_level2=1 eg4_level3=1 eg4_level4=1 eg4_level5=1
<region>sample=../Sample/Wave1186.wav lokey=63 hikey=63 pitch_keycenter=89 tune=15 loop_mode=loop_continuous loop_start=9649 loop_end=10986 pan=0 eg2_cutoff=4864 eg2_sustain=4 eg2_time1=0 eg2_time2=0 eg2_time3=0.0489896 eg2_time4=0.1841805 eg2_time5=1.720446 eg2_level1=0 eg2_level2=1 eg2_level3=0.976378 eg2_level4=0.9055118 eg2_level5=0.8740157 eg3_amplitude=100 eg3_sustain=4 eg3_time1=0 eg3_time2=0 eg3_time3=0.1635926 eg3_time4=1.6315341 eg3_time5=1.2811341 eg3_level1=0 eg3_level2=1 eg3_level3=0.4156189 eg3_level4=0 eg3_level5=0 amplitude_cc16=88.2677165 ampeg_attack=0 ampeg_release=1.2811341 eg4_time1=0 eg4_time2=0 eg4_time3=0.1635926 eg4_time4=1.6315341 eg4_time5=1.2811341 eg4_level1=1 eg4_level2=1 eg4_level3=1 eg4_level4=1 eg4_level5=1
<region>sample=../Sample/Wave1186.wav lokey=64 hikey=64 pitch_keycenter=89 tune=15 loop_mode=loop_continuous loop_start=9649 loop_end=10986 pan=0 eg2_cutoff=4864 eg2_sustain=4 eg2_time1=0 eg2_time2=0 eg2_time3=0.0489896 eg2_time4=0.1841805 eg2_time5=1.720446 eg2_level1=0 eg2_level2=1 eg2_level3=0.976378 eg2_level4=0.9055118 eg2_level5=0.8740157 eg3_amplitude=100 eg3_sustain=4 eg3_time1=0 eg3_time2=0 eg3_time3=0.1607245 eg3_time4=1.6029299 eg3_time5=1.2586731 eg3_level1=0 eg3_level2=1 eg3_level3=0.4156189 eg3_level4=0 eg3_level5=0 amplitude_cc16=86.7191601 ampeg_attack=0 ampeg_release=1.2586731 eg4_time1=0 eg4_time2=0 eg4_time3=0.1607245 eg4_time4=1.6029299 eg4_time5=1.2586731 eg4_level1=1 eg4_level2=1 eg4_level3=1 eg4_level4=1 eg4_level5=1
<region>sample=../Sample/Wave1186.wav lokey=65 hikey=65 pitch_keycenter=89 tune=15 loop_mode=loop_continuous loop_start=9649 loop_end=10986 pan=0 eg2_cutoff=4864 eg2_sustain=4 eg2_time1=0 eg2_time2=0 eg2_time3=0.0489896 eg2_time4=0.1841805 eg2_time5=1.720446 eg2_level1=0 eg2_level2=1 eg2_level3=0.976378 eg2_level4=0.9055118 eg2_level5=0.8740157 eg3_amplitude=100 eg3_sustain=4 eg3_time1=0 eg3_time2=0 eg3_time3=0.1579067 eg3_time4=1.5748271 eg3_time5=1.2366059 eg3_level1=0 eg3_level2=1 eg3_level3=0.4156189 eg3_level4=0 eg3_level5=0 amplitude_cc16=85.1706037 ampeg_attack=0 ampeg_release=1.2366059 eg4_time1=0 eg4_time2=0 eg4_time3=0.1579067 eg4_time4=1.5748271 eg4_time5=1.2366059 eg4_level1=1 eg4_level2=1 eg4_level3=1 eg4_level4=1 eg4_level5=1
<region>sample=../Sample/Wave1186.wav lokey=66 hikey=66 pitch_keycenter=89 tune=15 loop_mode=loop_continuous loop_start=9649 loop_end=10986 pan=0 eg2_cutoff=4864 eg2_sustain=4 eg2_time1=0 eg2_time2=0 eg2_time3=0.0489896 eg2_time4=0.1841805 eg2_time5=1.720446 eg2_level1=0 eg2_level2=1 eg2_level3=0.976378 eg2_level4=0.9055118 eg2_level5=0.8740157 eg3_amplitude=100 eg3_sustain=4 eg3_time1=0 eg3_time2=0 eg3_time3=0.1551382 eg3_time4=1.5472171 eg3_time5=1.2149256 eg3_level1=0 eg3_level2=1 eg3_level3=0.4156189 eg3_level4=0 eg3_level5=0 amplitude_cc16=83.6220472 ampeg_attack=0 ampeg_release=1.2149256 eg4_time1=0 eg4_time2=0 eg4_time3=0.1551382 eg4_time4=1.5472171 eg4_time5=1.2149256 eg4_level1=1 eg4_level2=1 eg4_level3=1 eg4_level4=1 eg4_level5=1
<region>sample=../Sample/Wave1186.wav lokey=67 hikey=67 pitch_keycenter=89 tune=15 loop_mode=loop_continuous loop_start=9649 loop_end=10986 pan=0 eg2_cutoff=4864 eg2_sustain=4 eg2_time1=0 eg2_time2=0 eg2_time3=0.0489896 eg2_time4=0.1841805 eg2_time5=1.720446 eg2_level1=0 eg2_level2=1 eg2_level3=0.976378 eg2_level4=0.9055118 eg2_level5=0.8740157 eg3_amplitude=100 eg3_sustain=4 eg3_time1=0 eg3_time2=0 eg3_time3=0.1524183 eg3_time4=1.5200911 eg3_time5=1.1936254 eg3_level1=0 eg3_level2=1 eg3_level3=0.4156189 eg3_level4=0 eg3_level5=0 amplitude_cc16=82.0734908 ampeg_attack=0 ampeg_release=1.1936254 eg4_time1=0 eg4_time2=0 eg4_time3=0.1524183 eg4_time4=1.5200911 eg4_time5=1.1936254 eg4_level1=1 eg4_level2=1 eg4_level3=1 eg4_level4=1 eg4_level5=1
<region>sample=../Sample/Wave1186.wav lokey=68 hikey=68 pitch_keycenter=89 tune=15 loop_mode=loop_continuous loop_start=9649 loop_end=10986 pan=0 eg2_cutoff=4864 eg2_sustain=4 eg2_time1=0 eg2_time2=0 eg2_time3=0.0489896 eg2_time4=0.1841805 eg2_time5=1.720446 eg2_level1=0 eg2_level2=1 eg2_level3=0.976378 eg2_level4=0.9055118 eg2_level5=0.8740157 eg3_amplitude=100 eg3_sustain=4 eg3_time1=0 eg3_time2=0 eg3_time3=0.1497461 eg3_time4=1.4934408 eg3_time5=1.1726987 eg3_level1=0 eg3_level2=1 eg3_level3=0.4156189 eg3_level4=0 eg3_level5=0 amplitude_cc16=80.5249344 ampeg_attack=0 ampeg_release=1.1726987 eg4_time1=0 eg4_time2=0 eg4_time3=0.1497461 eg4_time4=1.4934408 eg4_time5=1.1726987 eg4_level1=1 eg4_level2=1 eg4_level3=1 eg4_level4=1 eg4_level5=1
<region>sample=../Sample/Wave1186.wav lokey=69 hikey=69 pitch_keycenter=89 tune=15 loop_mode=loop_continuous loop_start=9649 loop_end=10986 pan=0 eg2_cutoff=4864 eg2_sustain=4 eg2_time1=0 eg2_time2=0 eg2_time3=0.0489896 eg2_time4=0.1841805 eg2_time5=1.720446 eg2_level1=0 eg2_level2=1 eg2_level3=0.976378 eg2_level4=0.9055118 eg2_level5=0.8740157 eg3_amplitude=100 eg3_sustain=4 eg3_time1=0 eg3_time2=0 eg3_time3=0.1471208 eg3_time4=1.4672576 eg3_time5=1.1521388 eg3_level1=0 eg3_level2=1 eg3_level3=0.4156189 eg3_level4=0 eg3_level5=0 amplitude_cc16=78.976378 ampeg_attack=0 ampeg_release=1.1521388 eg4_time1=0 eg4_time2=0 eg4_time3=0.1471208 eg4_time4=1.4672576 eg4_time5=1.1521388 eg4_level1=1 eg4_level2=1 eg4_level3=1 eg4_level4=1 eg4_level5=1
<region>sample=../Sample/Wave1186.wav lokey=70 hikey=70 pitch_keycenter=89 tune=15 loop_mode=loop_continuous loop_start=9649 loop_end=10986 pan=0 eg2_cutoff=4864 eg2_sustain=4 eg2_time1=0 eg2_time2=0 eg2_time3=0.0489896 eg2_time4=0.1841805 eg2_time5=1.720446 eg2_level1=0 eg2_level2=1 eg2_level3=0.976378 eg2_level4=0.9055118 eg2_level5=0.8740157 eg3_amplitude=100 eg3_sustain=4 eg3_time1=0 eg3_time2=0 eg3_time3=0.1445414 eg3_time4=1.4415335 eg3_time5=1.1319394 eg3_level1=0 eg3_level2=1 eg3_level3=0.4156189 eg3_level4=0 eg3_level5=0 amplitude_cc16=77.4278215 ampeg_attack=0 ampeg_release=1.1319394 eg4_time1=0 eg4_time2=0 eg4_time3=0.1445414 eg4_time4=1.4415335 eg4_time5=1.1319394 eg4_level1=1 eg4_level2=1 eg4_level3=1 eg4_level4=1 eg4_level5=1
<region>sample=../Sample/Wave1186.wav lokey=71 hikey=71 pitch_keycenter=89 tune=15 loop_mode=loop_continuous loop_start=9649 loop_end=10986 pan=0 eg2_cutoff=4864 eg2_sustain=4 eg2_time1=0 eg2_time2=0 eg2_time3=0.0489896 eg2_time4=0.1841805 eg2_time5=1.720446 eg2_level1=0 eg2_level2=1 eg2_level3=0.976378 eg2_level4=0.9055118 eg2_level5=0.8740157 eg3_amplitude=100 eg3_sustain=4 eg3_time1=0 eg3_time2=0 eg3_time3=0.1420073 eg3_time4=1.4162604 eg3_time5=1.1120941 eg3_level1=0 eg3_level2=1 eg3_level3=0.4156189 eg3_level4=0 eg3_level5=0 amplitude_cc16=75.8792651 ampeg_attack=0 ampeg_release=1.1120941 eg4_time1=0 eg4_time2=0 eg4_time3=0.1420073 eg4_time4=1.4162604 eg4_time5=1.1120941 eg4_level1=1 eg4_level2=1 eg4_level3=1 eg4_level4=1 eg4_level5=1
<region>sample=../Sample/Wave1186.wav lokey=72 hikey=72 pitch_keycenter=89 tune=15 loop_mode=loop_continuous loop_start=9649 loop_end=10986 pan=0 eg2_cutoff=4864 eg2_sustain=4 eg2_time1=0 eg2_time2=0 eg2_time3=0.0489896 eg2_time4=0.1841805 eg2_time5=1.720446 eg2_level1=0 eg2_level2=1 eg2_level3=0.976378 eg2_level4=0.9055118 eg2_level5=0.8740157 eg3_amplitude=100 eg3_sustain=4 eg3_time1=0 eg3_time2=0 eg3_time3=0.1395176 eg3_time4=1.3914304 eg3_time5=1.0925968 eg3_level1=0 eg3_level2=1 eg3_level3=0.4156189 eg3_level4=0 eg3_level5=0 amplitude_cc16=74.3307087 ampeg_attack=0 ampeg_release=1.0925968 eg4_time1=0 eg4_time2=0 eg4_time3=0.1395176 eg4_time4=1.3914304 eg4_time5=1.0925968 eg4_level1=1 eg4_level2=1 eg4_level3=1 eg4_level4=1 eg4_level5=1
<region>sample=../Sample/Wave1186.wav lokey=73 hikey=73 pitch_keycenter=89 tune=15 loop_mode=loop_continuous loop_start=9649 loop_end=10986 pan=0 eg2_cutoff=4864 eg2_sustain=4 eg2_time1=0 eg2_time2=0 eg2_time3=0.0489896 eg2_time4=0.1841805 eg2_time5=1.720446 eg2_level1=0 eg2_level2=1 eg2_level3=0.976378 eg2_level4=0.9055118 eg2_level5=0.8740157 eg3_amplitude=100 eg3_sustain=4 eg3_time1=0 eg3_time2=0 eg3_time3=0.1370716 eg3_time4=1.3670357 eg3_time5=1.0734413 eg3_level1=0 eg3_level2=1 eg3_level3=0.4156189 eg3_level4=0 eg3_level5=0 amplitude_cc16=72.7821522 ampeg_attack=0 ampeg_release=1.0734413 eg4_time1=0 eg4_time2=0 eg4_time3=0.1370716 eg4_time4=1.3670357 eg4_time5=1.0734413 eg4_level1=1 eg4_level2=1 eg4_level3=1 eg4_level4=1 eg4_level5=1
<region>sample=../Sample/Wave1186.wav lokey=74 hikey=74 pitch_keycenter=89 tune=15 loop_mode=loop_continuous loop_start=9649 loop_end=10986 pan=0 eg2_cutoff=4864 eg2_sustain=4 eg2_time1=0 eg2_time2=0 eg2_time3=0.0489896 eg2_time4=0.1841805 eg2_time5=1.720446 eg2_level1=0 eg2_level2=1 eg2_level3=0.976378 eg2_level4=0.9055118 eg2_level5=0.8740157 eg3_amplitude=100 eg3_sustain=4 eg3_time1=0 eg3_time2=0 eg3_time3=0.1346684 eg3_time4=1.3430687 eg3_time5=1.0546216 eg3_level1=0 eg3_level2=1 eg3_level3=0.4156189 eg3_level4=0 eg3_level5=0 amplitude_cc16=71.2335958 ampeg_attack=0 ampeg_release=1.0546216 eg4_time1=0 eg4_time2=0 eg4_time3=0.1346684 eg4_time4=1.3430687 eg4_time5=1.0546216 eg4_level1=1 eg4_level2=1 eg4_level3=1 eg4_level4=1 eg4_level5=1
<region>sample=../Sample/Wave1186.wav lokey=75 hikey=75 pitch_keycenter=89 tune=15 loop_mode=loop_continuous loop_start=9649 loop_end=10986 pan=0 eg2_cutoff=4864 eg2_sustain=4 eg2_time1=0 eg2_time2=0 eg2_time3=0.0489896 eg2_time4=0.1841805 eg2_time5=1.720446 eg2_level1=0 eg2_level2=1 eg2_level3=0.976378 eg2_level4=0.9055118 eg2_level5=0.8740157 eg3_amplitude=100 eg3_sustain=4 eg3_time1=0 eg3_time2=0 eg3_time3=0.1323074 eg3_time4=1.3195218 eg3_time5=1.0361318 eg3_level1=0 eg3_level2=1 eg3_level3=0.4156189 eg3_level4=0 eg3_level5=0 amplitude_cc16=69.6850394 ampeg_attack=0 ampeg_release=1.0361318 eg4_time1=0 eg4_time2=0 eg4_time3=0.1323074 eg4_time4=1.3195218 eg4_time5=1.0361318 eg4_level1=1 eg4_level2=1 eg4_level3=1 eg4_level4=1 eg4_level5=1
<region>sample=../Sample/Wave1186.wav lokey=76 hikey=76 pitch_keycenter=89 tune=15 loop_mode=loop_continuous loop_start=9649 loop_end=10986 pan=0 eg2_cutoff=4864 eg2_sustain=4 eg2_time1=0 eg2_time2=0 eg2_time3=0.0489896 eg2_time4=0.1841805 eg2_time5=1.720446 eg2_level1=0 eg2_level2=1 eg2_level3=0.976378 eg2_level4=0.9055118 eg2_level5=0.8740157 eg3_amplitude=100 eg3_sustain=4 eg3_time1=0 eg3_time2=0 eg3_time3=0.1299878 eg3_time4=1.2963879 eg3_time5=1.0179663 eg3_level1=0 eg3_level2=1 eg3_level3=0.4156189 eg3_level4=0 eg3_level5=0 amplitude_cc16=68.1364829 ampeg_attack=0 ampeg_release=1.0179663 eg4_time1=0 eg4_time2=0 eg4_time3=0.1299878 eg4_time4=1.2963879 eg4_time5=1.0179663 eg4_level1=1 eg4_level2=1 eg4_level3=1 eg4_level4=1 eg4_level5=1
<region>sample=../Sample/Wave1186.wav lokey=77 hikey=77 pitch_keycenter=89 tune=15 loop_mode=loop_continuous loop_start=9649 loop_end=10986 pan=0 eg2_cutoff=4864 eg2_sustain=4 eg2_time1=0 eg2_time2=0 eg2_time3=0.0489896 eg2_time4=0.1841805 eg2_time5=1.720446 eg2_level1=0 eg2_level2=1 eg2_level3=0.976378 eg2_level4=0.9055118 eg2_level5=0.8740157 eg3_amplitude=100 eg3_sustain=4 eg3_time1=0 eg3_time2=0 eg3_time3=0.1277088 eg3_time4=1.2736595 eg3_time5=1.0001192 eg3_level1=0 eg3_level2=1 eg3_level3=0.4156189 eg3_level4=0 eg3_level5=0 amplitude_cc16=66.5879265 ampeg_attack=0 ampeg_release=1.0001192 eg4_time1=0 eg4_time2=0 eg4_time3=0.1277088 eg4_time4=1.2736595 eg4_time5=1.0001192 eg4_level1=1 eg4_level2=1 eg4_level3=1 eg4_level4=1 eg4_level5=1
<region>sample=../Sample/Wave1186.wav lokey=78 hikey=78 pitch_keycenter=89 tune=15 loop_mode=loop_continuous loop_start=9649 loop_end=10986 pan=0 eg2_cutoff=4864 eg2_sustain=4 eg2_time1=0 eg2_time2=0 eg2_time3=0.0489896 eg2_time4=0.1841805 eg2_time5=1.720446 eg2_level1=0 eg2_level2=1 eg2_level3=0.976378 eg2_level4=0.9055118 eg2_level5=0.8740157 eg3_amplitude=100 eg3_sustain=4 eg3_time1=0 eg3_time2=0 eg3_time3=0.1254698 eg3_time4=1.2513295 eg3_time5=0.982585 eg3_level1=0 eg3_level2=1 eg3_level3=0.4156189 eg3_level4=0 eg3_level5=0 amplitude_cc16=65.0393701 ampeg_attack=0 ampeg_release=0.982585 eg4_time1=0 eg4_time2=0 eg4_time3=0.1254698 eg4_time4=1.2513295 eg4_time5=0.982585 eg4_level1=1 eg4_level2=1 eg4_level3=1 eg4_level4=1 eg4_level5=1
<region>sample=../Sample/Wave1186.wav lokey=79 hikey=79 pitch_keycenter=89 tune=15 loop_mode=loop_continuous loop_start=9649 loop_end=10986 pan=0 eg2_cutoff=4864 eg2_sustain=4 eg2_time1=0 eg2_time2=0 eg2_time3=0.0489896 eg2_time4=0.1841805 eg2_time5=1.720446 eg2_level1=0 eg2_level2=1 eg2_level3=0.976378 eg2_level4=0.9055118 eg2_level5=0.8740157 eg3_amplitude=100 eg3_sustain=4 eg3_time1=0 eg3_time2=0 eg3_time3=0.1232701 eg3_time4=1.2293911 eg3_time5=0.9653582 eg3_level1=0 eg3_level2=1 eg3_level3=0.4156189 eg3_level4=0 eg3_level5=0 amplitude_cc16=63.4908136 ampeg_attack=0 ampeg_release=0.9653582 eg4_time1=0 eg4_time2=0 eg4_time3=0.1232701 eg4_time4=1.2293911 eg4_time5=0.9653582 eg4_level1=1 eg4_level2=1 eg4_level3=1 eg4_level4=1 eg4_level5=1
<region>sample=../Sample/Wave1186.wav lokey=80 hikey=80 pitch_keycenter=89 tune=15 loop_mode=loop_continuous loop_start=9649 loop_end=10986 pan=0 eg2_cutoff=4864 eg2_sustain=4 eg2_time1=0 eg2_time2=0 eg2_time3=0.0489896 eg2_time4=0.1841805 eg2_time5=1.720446 eg2_level1=0 eg2_level2=1 eg2_level3=0.976378 eg2_level4=0.9055118 eg2_level5=0.8740157 eg3_amplitude=100 eg3_sustain=4 eg3_time1=0 eg3_time2=0 eg3_time3=0.1211089 eg3_time4=1.2078373 eg3_time5=0.9484335 eg3_level1=0 eg3_level2=1 eg3_level3=0.4156189 eg3_level4=0 eg3_level5=0 amplitude_cc16=61.9422572 ampeg_attack=0 ampeg_release=0.9484335 eg4_time1=0 eg4_time2=0 eg4_time3=0.1211089 eg4_time4=1.2078373 eg4_time5=0.9484335 eg4_level1=1 eg4_level2=1 eg4_level3=1 eg4_level4=1 eg4_level5=1
<region>sample=../Sample/Wave1186.wav lokey=81 hikey=81 pitch_keycenter=89 tune=15 loop_mode=loop_continuous loop_start=9649 loop_end=10986 pan=0 eg2_cutoff=4864 eg2_sustain=4 eg2_time1=0 eg2_time2=0 eg2_time3=0.0489896 eg2_time4=0.1841805 eg2_time5=1.720446 eg2_level1=0 eg2_level2=1 eg2_level3=0.976378 eg2_level4=0.9055118 eg2_level5=0.8740157 eg3_amplitude=100 eg3_sustain=4 eg3_time1=0 eg3_time2=0 eg3_time3=0.1189856 eg3_time4=1.1866614 eg3_time5=0.9318054 eg3_level1=0 eg3_level2=1 eg3_level3=0.4156189 eg3_level4=0 eg3_level5=0 amplitude_cc16=60.3937008 ampeg_attack=0 ampeg_release=0.9318054 eg4_time1=0 eg4_time2=0 eg4_time3=0.1189856 eg4_time4=1.1866614 eg4_time5=0.9318054 eg4_level1=1 eg4_level2=1 eg4_level3=1 eg4_level4=1 eg4_level5=1
<region>sample=../Sample/Wave1186.wav lokey=82 hikey=82 pitch_keycenter=89 tune=15 loop_mode=loop_continuous loop_start=9649 loop_end=10986 pan=0 eg2_cutoff=4864 eg2_sustain=4 eg2_time1=0 eg2_time2=0 eg2_time3=0.0489896 eg2_time4=0.1841805 eg2_time5=1.720446 eg2_level1=0 eg2_level2=1 eg2_level3=0.976378 eg2_level4=0.9055118 eg2_level5=0.8740157 eg3_amplitude=100 eg3_sustain=4 eg3_time1=0 eg3_time2=0 eg3_time3=0.1168995 eg3_time4=1.1658567 eg3_time5=0.9154689 eg3_level1=0 eg3_level2=1 eg3_level3=0.4156189 eg3_level4=0 eg3_level5=0 amplitude_cc16=58.8451444 ampeg_attack=0 ampeg_release=0.9154689 eg4_time1=0 eg4_time2=0 eg4_time3=0.1168995 eg4_time4=1.1658567 eg4_time5=0.9154689 eg4_level1=1 eg4_level2=1 eg4_level3=1 eg4_level4=1 eg4_level5=1
<region>sample=../Sample/Wave1186.wav lokey=83 hikey=83 pitch_keycenter=89 tune=15 loop_mode=loop_continuous loop_start=9649 loop_end=10986 pan=0 eg2_cutoff=4864 eg2_sustain=4 eg2_time1=0 eg2_time2=0 eg2_time3=0.0489896 eg2_time4=0.1841805 eg2_time5=1.720446 eg2_level1=0 eg2_level2=1 eg2_level3=0.976378 eg2_level4=0.9055118 eg2_level5=0.8740157 eg3_amplitude=100 eg3_sustain=4 eg3_time1=0 eg3_time2=0 eg3_time3=0.11485 eg3_time4=1.1454168 eg3_time5=0.8994188 eg3_level1=0 eg3_level2=1 eg3_level3=0.4156189 eg3_level4=0 eg3_level5=0 amplitude_cc16=57.2965879 ampeg_attack=0 ampeg_release=0.8994188 eg4_time1=0 eg4_time2=0 eg4_time3=0.11485 eg4_time4=1.1454168 eg4_time5=0.8994188 eg4_level1=1 eg4_level2=1 eg4_level3=1 eg4_level4=1 eg4_level5=1
<region>sample=../Sample/Wave1186.wav lokey=84 hikey=84 pitch_keycenter=89 tune=15 loop_mode=loop_continuous loop_start=9649 loop_end=10986 pan=0 eg2_cutoff=4864 eg2_sustain=4 eg2_time1=0 eg2_time2=0 eg2_time3=0.0489896 eg2_time4=0.1841805 eg2_time5=1.720446 eg2_level1=0 eg2_level2=1 eg2_level3=0.976378 eg2_level4=0.9055118 eg2_level5=0.8740157 eg3_amplitude=100 eg3_sustain=4 eg3_time1=0 eg3_time2=0 eg3_time3=0.1128365 eg3_time4=1.1253352 eg3_time5=0.8836501 eg3_level1=0 eg3_level2=1 eg3_level3=0.4156189 eg3_level4=0 eg3_level5=0 amplitude_cc16=55.7480315 ampeg_attack=0 ampeg_release=0.8836501 eg4_time1=0 eg4_time2=0 eg4_time3=0.1128365 eg4_time4=1.1253352 eg4_time5=0.8836501 eg4_level1=1 eg4_level2=1 eg4_level3=1 eg4_level4=1 eg4_level5=1
<region>sample=../Sample/Wave1186.wav lokey=85 hikey=85 pitch_keycenter=89 tune=15 loop_mode=loop_continuous loop_start=9649 loop_end=10986 pan=0 eg2_cutoff=4864 eg2_sustain=4 eg2_time1=0 eg2_time2=0 eg2_time3=0.0489896 eg2_time4=0.1841805 eg2_time5=1.720446 eg2_level1=0 eg2_level2=1 eg2_level3=0.976378 eg2_level4=0.9055118 eg2_level5=0.8740157 eg3_amplitude=100 eg3_sustain=4 eg3_time1=0 eg3_time2=0 eg3_time3=0.1108582 eg3_time4=1.1056057 eg3_time5=0.8681579 eg3_level1=0 eg3_level2=1 eg3_level3=0.4156189 eg3_level4=0 eg3_level5=0 amplitude_cc16=54.1994751 ampeg_attack=0 ampeg_release=0.8681579 eg4_time1=0 eg4_time2=0 eg4_time3=0.1108582 eg4_time4=1.1056057 eg4_time5=0.8681579 eg4_level1=1 eg4_level2=1 eg4_level3=1 eg4_level4=1 eg4_level5=1
<region>sample=../Sample/Wave1186.wav lokey=86 hikey=86 pitch_keycenter=89 tune=15 loop_mode=loop_continuous loop_start=9649 loop_end=10986 pan=0 eg2_cutoff=4864 eg2_sustain=4 eg2_time1=0 eg2_time2=0 eg2_time3=0.0489896 eg2_time4=0.1841805 eg2_time5=1.720446 eg2_level1=0 eg2_level2=1 eg2_level3=0.976378 eg2_level4=0.9055118 eg2_level5=0.8740157 eg3_amplitude=100 eg3_sustain=4 eg3_time1=0 eg3_time2=0 eg3_time3=0.1089146 eg3_time4=1.0862221 eg3_time5=0.8529373 eg3_level1=0 eg3_level2=1 eg3_level3=0.4156189 eg3_level4=0 eg3_level5=0 amplitude_cc16=52.6509186 ampeg_attack=0 ampeg_release=0.8529373 eg4_time1=0 eg4_time2=0 eg4_time3=0.1089146 eg4_time4=1.0862221 eg4_time5=0.8529373 eg4_level1=1 eg4_level2=1 eg4_level3=1 eg4_level4=1 eg4_level5=1
<region>sample=../Sample/Wave1186.wav lokey=87 hikey=87 pitch_keycenter=89 tune=15 loop_mode=loop_continuous loop_start=9649 loop_end=10986 pan=0 eg2_cutoff=4864 eg2_sustain=4 eg2_time1=0 eg2_time2=0 eg2_time3=0.0489896 eg2_time4=0.1841805 eg2_time5=1.720446 eg2_level1=0 eg2_level2=1 eg2_level3=0.976378 eg2_level4=0.9055118 eg2_level5=0.8740157 eg3_amplitude=100 eg3_sustain=4 eg3_time1=0 eg3_time2=0 eg3_time3=0.1070051 eg3_time4=1.0671784 eg3_time5=0.8379835 eg3_level1=0 eg3_level2=1 eg3_level3=0.4156189 eg3_level4=0 eg3_level5=0 amplitude_cc16=51.1023622 ampeg_attack=0 ampeg_release=0.8379835 eg4_time1=0 eg4_time2=0 eg4_time3=0.1070051 eg4_time4=1.0671784 eg4_time5=0.8379835 eg4_level1=1 eg4_level2=1 eg4_level3=1 eg4_level4=1 eg4_level5=1
<region>sample=../Sample/Wave1186.wav lokey=88 hikey=88 pitch_keycenter=89 tune=15 loop_mode=loop_continuous loop_start=9649 loop_end=10986 pan=0 eg2_cutoff=4864 eg2_sustain=4 eg2_time1=0 eg2_time2=0 eg2_time3=0.0489896 eg2_time4=0.1841805 eg2_time5=1.720446 eg2_level1=0 eg2_level2=1 eg2_level3=0.976378 eg2_level4=0.9055118 eg2_level5=0.8740157 eg3_amplitude=100 eg3_sustain=4 eg3_time1=0 eg3_time2=0 eg3_time3=0.1051291 eg3_time4=1.0484685 eg3_time5=0.8232919 eg3_level1=0 eg3_level2=1 eg3_level3=0.4156189 eg3_level4=0 eg3_level5=0 amplitude_cc16=49.5538058 ampeg_attack=0 ampeg_release=0.8232919 eg4_time1=0 eg4_time2=0 eg4_time3=0.1051291 eg4_time4=1.0484685 eg4_time5=0.8232919 eg4_level1=1 eg4_level2=1 eg4_level3=1 eg4_level4=1 eg4_level5=1
<region>sample=../Sample/Wave1186.wav lokey=89 hikey=89 pitch_keycenter=89 tune=15 loop_mode=loop_continuous loop_start=9649 loop_end=10986 pan=0 eg2_cutoff=4864 eg2_sustain=4 eg2_time1=0 eg2_time2=0 eg2_time3=0.0489896 eg2_time4=0.1841805 eg2_time5=1.720446 eg2_level1=0 eg2_level2=1 eg2_level3=0.976378 eg2_level4=0.9055118 eg2_level5=0.8740157 eg3_amplitude=100 eg3_sustain=4 eg3_time1=0 eg3_time2=0 eg3_time3=0.103286 eg3_time4=1.0300866 eg3_time5=0.8088578 eg3_level1=0 eg3_level2=1 eg3_level3=0.4156189 eg3_level4=0 eg3_level5=0 amplitude_cc16=48.0052493 ampeg_attack=0 ampeg_release=0.8088578 eg4_time1=0 eg4_time2=0 eg4_time3=0.103286 eg4_time4=1.0300866 eg4_time5=0.8088578 eg4_level1=1 eg4_level2=1 eg4_level3=1 eg4_level4=1 eg4_level5=1
<region>sample=../Sample/Wave1186.wav lokey=90 hikey=90 pitch_keycenter=89 tune=15 loop_mode=loop_continuous loop_start=9649 loop_end=10986 pan=0 eg2_cutoff=4864 eg2_sustain=4 eg2_time1=0 eg2_time2=0 eg2_time3=0.0489896 eg2_time4=0.1841805 eg2_time5=1.720446 eg2_level1=0 eg2_level2=1 eg2_level3=0.976378 eg2_level4=0.9055118 eg2_level5=0.8740157 eg3_amplitude=100 eg3_sustain=4 eg3_time1=0 eg3_time2=0 eg3_time3=0.1014752 eg3_time4=1.0120271 eg3_time5=0.7946768 eg3_level1=0 eg3_level2=1 eg3_level3=0.4156189 eg3_level4=0 eg3_level5=0 amplitude_cc16=46.4566929 ampeg_attack=0 ampeg_release=0.7946768 eg4_time1=0 eg4_time2=0 eg4_time3=0.1014752 eg4_time4=1.0120271 eg4_time5=0.7946768 eg4_level1=1 eg4_level2=1 eg4_level3=1 eg4_level4=1 eg4_level5=1
<region>sample=../Sample/Wave1186.wav lokey=91 hikey=91 pitch_keycenter=89 tune=15 loop_mode=loop_continuous loop_start=9649 loop_end=10986 pan=0 eg2_cutoff=4864 eg2_sustain=4 eg2_time1=0 eg2_time2=0 eg2_time3=0.0489896 eg2_time4=0.1841805 eg2_time5=1.720446 eg2_level1=0 eg2_level2=1 eg2_level3=0.976378 eg2_level4=0.9055118 eg2_level5=0.8740157 eg3_amplitude=100 eg3_sustain=4 eg3_time1=0 eg3_time2=0 eg3_time3=0.0996961 eg3_time4=0.9942841 eg3_time5=0.7807445 eg3_level1=0 eg3_level2=1 eg3_level3=0.4156189 eg3_level4=0 eg3_level5=0 amplitude_cc16=44.9081365 ampeg_attack=0 ampeg_release=0.7807445 eg4_time1=0 eg4_time2=0 eg4_time3=0.0996961 eg4_time4=0.9942841 eg4_time5=0.7807445 eg4_level1=1 eg4_level2=1 eg4_level3=1 eg4_level4=1 eg4_level5=1
<region>sample=../Sample/Wave1186.wav lokey=92 hikey=92 pitch_keycenter=89 tune=15 loop_mode=loop_continuous loop_start=9649 loop_end=10986 pan=0 eg2_cutoff=4864 eg2_sustain=4 eg2_time1=0 eg2_time2=0 eg2_time3=0.0489896 eg2_time4=0.1841805 eg2_time5=1.720446 eg2_level1=0 eg2_level2=1 eg2_level3=0.976378 eg2_level4=0.9055118 eg2_level5=0.8740157 eg3_amplitude=100 eg3_sustain=4 eg3_time1=0 eg3_time2=0 eg3_time3=0.0979482 eg3_time4=0.9768522 eg3_time5=0.7670564 eg3_level1=0 eg3_level2=1 eg3_level3=0.4156189 eg3_level4=0 eg3_level5=0 amplitude_cc16=43.3595801 ampeg_attack=0 ampeg_release=0.7670564 eg4_time1=0 eg4_time2=0 eg4_time3=0.0979482 eg4_time4=0.9768522 eg4_time5=0.7670564 eg4_level1=1 eg4_level2=1 eg4_level3=1 eg4_level4=1 eg4_level5=1
<region>sample=../Sample/Wave1186.wav lokey=93 hikey=93 pitch_keycenter=89 tune=15 loop_mode=loop_continuous loop_start=9649 loop_end=10986 pan=0 eg2_cutoff=4864 eg2_sustain=4 eg2_time1=0 eg2_time2=0 eg2_time3=0.0489896 eg2_time4=0.1841805 eg2_time5=1.720446 eg2_level1=0 eg2_level2=1 eg2_level3=0.976378 eg2_level4=0.9055118 eg2_level5=0.8740157 eg3_amplitude=100 eg3_sustain=4 eg3_time1=0 eg3_time2=0 eg3_time3=0.096231 eg3_time4=0.9597259 eg3_time5=0.7536083 eg3_level1=0 eg3_level2=1 eg3_level3=0.4156189 eg3_level4=0 eg3_level5=0 amplitude_cc16=41.8110236 ampeg_attack=0 ampeg_release=0.7536083 eg4_time1=0 eg4_time2=0 eg4_time3=0.096231 eg4_time4=0.9597259 eg4_time5=0.7536083 eg4_level1=1 eg4_level2=1 eg4_level3=1 eg4_level4=1 eg4_level5=1
<region>sample=../Sample/Wave1186.wav lokey=94 hikey=94 pitch_keycenter=89 tune=15 loop_mode=loop_continuous loop_start=9649 loop_end=10986 pan=0 eg2_cutoff=4864 eg2_sustain=4 eg2_time1=0 eg2_time2=0 eg2_time3=0.0489896 eg2_time4=0.1841805 eg2_time5=1.720446 eg2_level1=0 eg2_level2=1 eg2_level3=0.976378 eg2_level4=0.9055118 eg2_level5=0.8740157 eg3_amplitude=100 eg3_sustain=4 eg3_time1=0 eg3_time2=0 eg3_time3=0.0945438 eg3_time4=0.9428999 eg3_time5=0.740396 eg3_level1=0 eg3_level2=1 eg3_level3=0.4156189 eg3_level4=0 eg3_level5=0 amplitude_cc16=40.2624672 ampeg_attack=0 ampeg_release=0.740396 eg4_time1=0 eg4_time2=0 eg4_time3=0.0945438 eg4_time4=0.9428999 eg4_time5=0.740396 eg4_level1=1 eg4_level2=1 eg4_level3=1 eg4_level4=1 eg4_level5=1
<region>sample=../Sample/Wave1186.wav lokey=95 hikey=95 pitch_keycenter=89 tune=15 loop_mode=loop_continuous loop_start=9649 loop_end=10986 pan=0 eg2_cutoff=4864 eg2_sustain=4 eg2_time1=0 eg2_time2=0 eg2_time3=0.0489896 eg2_time4=0.1841805 eg2_time5=1.720446 eg2_level1=0 eg2_level2=1 eg2_level3=0.976378 eg2_level4=0.9055118 eg2_level5=0.8740157 eg3_amplitude=100 eg3_sustain=4 eg3_time1=0 eg3_time2=0 eg3_time3=0.0928863 eg3_time4=0.9263689 eg3_time5=0.7274153 eg3_level1=0 eg3_level2=1 eg3_level3=0.4156189 eg3_level4=0 eg3_level5=0 amplitude_cc16=38.7139108 ampeg_attack=0 ampeg_release=0.7274153 eg4_time1=0 eg4_time2=0 eg4_time3=0.0928863 eg4_time4=0.9263689 eg4_time5=0.7274153 eg4_level1=1 eg4_level2=1 eg4_level3=1 eg4_level4=1 eg4_level5=1
<region>sample=../Sample/Wave1186.wav lokey=96 hikey=96 pitch_keycenter=89 tune=15 loop_mode=loop_continuous loop_start=9649 loop_end=10986 pan=0 eg2_cutoff=4864 eg2_sustain=4 eg2_time1=0 eg2_time2=0 eg2_time3=0.0489896 eg2_time4=0.1841805 eg2_time5=1.720446 eg2_level1=0 eg2_level2=1 eg2_level3=0.976378 eg2_level4=0.9055118 eg2_level5=0.8740157 eg3_amplitude=100 eg3_sustain=4 eg3_time1=0 eg3_time2=0 eg3_time3=0.0912578 eg3_time4=0.9101277 eg3_time5=0.7146621 eg3_level1=0 eg3_level2=1 eg3_level3=0.4156189 eg3_level4=0 eg3_level5=0 amplitude_cc16=37.1653543 ampeg_attack=0 ampeg_release=0.7146621 eg4_time1=0 eg4_time2=0 eg4_time3=0.0912578 eg4_time4=0.9101277 eg4_time5=0.7146621 eg4_level1=1 eg4_level2=1 eg4_level3=1 eg4_level4=1 eg4_level5=1
<region>sample=../Sample/Wave1186.wav lokey=97 hikey=97 pitch_keycenter=89 tune=15 loop_mode=loop_continuous loop_start=9649 loop_end=10986 pan=0 eg2_cutoff=4864 eg2_sustain=4 eg2_time1=0 eg2_time2=0 eg2_time3=0.0489896 eg2_time4=0.1841805 eg2_time5=1.720446 eg2_level1=0 eg2_level2=1 eg2_level3=0.976378 eg2_level4=0.9055118 eg2_level5=0.8740157 eg3_amplitude=100 eg3_sustain=4 eg3_time1=0 eg3_time2=0 eg3_time3=0.0896578 eg3_time4=0.8941713 eg3_time5=0.7021326 eg3_level1=0 eg3_level2=1 eg3_level3=0.4156189 eg3_level4=0 eg3_level5=0 amplitude_cc16=35.6167979 ampeg_attack=0 ampeg_release=0.7021326 eg4_time1=0 eg4_time2=0 eg4_time3=0.0896578 eg4_time4=0.8941713 eg4_time5=0.7021326 eg4_level1=1 eg4_level2=1 eg4_level3=1 eg4_level4=1 eg4_level5=1
<region>sample=../Sample/Wave1186.wav lokey=98 hikey=98 pitch_keycenter=89 tune=15 loop_mode=loop_continuous loop_start=9649 loop_end=10986 pan=0 eg2_cutoff=4864 eg2_sustain=4 eg2_time1=0 eg2_time2=0 eg2_time3=0.0489896 eg2_time4=0.1841805 eg2_time5=1.720446 eg2_level1=0 eg2_level2=1 eg2_level3=0.976378 eg2_level4=0.9055118 eg2_level5=0.8740157 eg3_amplitude=100 eg3_sustain=4 eg3_time1=0 eg3_time2=0 eg3_time3=0.088086 eg3_time4=0.8784946 eg3_time5=0.6898228 eg3_level1=0 eg3_level2=1 eg3_level3=0.4156189 eg3_level4=0 eg3_level5=0 amplitude_cc16=34.0682415 ampeg_attack=0 ampeg_release=0.6898228 eg4_time1=0 eg4_time2=0 eg4_time3=0.088086 eg4_time4=0.8784946 eg4_time5=0.6898228 eg4_level1=1 eg4_level2=1 eg4_level3=1 eg4_level4=1 eg4_level5=1
<region>sample=../Sample/Wave1186.wav lokey=99 hikey=99 pitch_keycenter=89 tune=15 loop_mode=loop_continuous loop_start=9649 loop_end=10986 pan=0 eg2_cutoff=4864 eg2_sustain=4 eg2_time1=0 eg2_time2=0 eg2_time3=0.0489896 eg2_time4=0.1841805 eg2_time5=1.720446 eg2_level1=0 eg2_level2=1 eg2_level3=0.976378 eg2_level4=0.9055118 eg2_level5=0.8740157 eg3_amplitude=100 eg3_sustain=4 eg3_time1=0 eg3_time2=0 eg3_time3=0.0865416 eg3_time4=0.8630927 eg3_time5=0.6777287 eg3_level1=0 eg3_level2=1 eg3_level3=0.4156189 eg3_level4=0 eg3_level5=0 amplitude_cc16=32.519685 ampeg_attack=0 ampeg_release=0.6777287 eg4_time1=0 eg4_time2=0 eg4_time3=0.0865416 eg4_time4=0.8630927 eg4_time5=0.6777287 eg4_level1=1 eg4_level2=1 eg4_level3=1 eg4_level4=1 eg4_level5=1
<region>sample=../Sample/Wave1186.wav lokey=100 hikey=100 pitch_keycenter=89 tune=15 loop_mode=loop_continuous loop_start=9649 loop_end=10986 pan=0 eg2_cutoff=4864 eg2_sustain=4 eg2_time1=0 eg2_time2=0 eg2_time3=0.0489896 eg2_time4=0.1841805 eg2_time5=1.720446 eg2_level1=0 eg2_level2=1 eg2_level3=0.976378 eg2_level4=0.9055118 eg2_level5=0.8740157 eg3_amplitude=100 eg3_sustain=4 eg3_time1=0 eg3_time2=0 eg3_time3=0.0850244 eg3_time4=0.8479609 eg3_time5=0.6658467 eg3_level1=0 eg3_level2=1 eg3_level3=0.4156189 eg3_level4=0 eg3_level5=0 amplitude_cc16=30.9711286 ampeg_attack=0 ampeg_release=0.6658467 eg4_time1=0 eg4_time2=0 eg4_time3=0.0850244 eg4_time4=0.8479609 eg4_time5=0.6658467 eg4_level1=1 eg4_level2=1 eg4_level3=1 eg4_level4=1 eg4_level5=1
<region>sample=../Sample/Wave1186.wav lokey=101 hikey=101 pitch_keycenter=89 tune=15 loop_mode=loop_continuous loop_start=9649 loop_end=10986 pan=0 eg2_cutoff=4864 eg2_sustain=4 eg2_time1=0 eg2_time2=0 eg2_time3=0.0489896 eg2_time4=0.1841805 eg2_time5=1.720446 eg2_level1=0 eg2_level2=1 eg2_level3=0.976378 eg2_level4=0.9055118 eg2_level5=0.8740157 eg3_amplitude=100 eg3_sustain=4 eg3_time1=0 eg3_time2=0 eg3_time3=0.0835337 eg3_time4=0.8330943 eg3_time5=0.654173 eg3_level1=0 eg3_level2=1 eg3_level3=0.4156189 eg3_level4=0 eg3_level5=0 amplitude_cc16=29.4225722 ampeg_attack=0 ampeg_release=0.654173 eg4_time1=0 eg4_time2=0 eg4_time3=0.0835337 eg4_time4=0.8330943 eg4_time5=0.654173 eg4_level1=1 eg4_level2=1 eg4_level3=1 eg4_level4=1 eg4_level5=1
<region>sample=../Sample/Wave1186.wav lokey=102 hikey=102 pitch_keycenter=89 tune=15 loop_mode=loop_continuous loop_start=9649 loop_end=10986 pan=0 eg2_cutoff=4864 eg2_sustain=4 eg2_time1=0 eg2_time2=0 eg2_time3=0.0489896 eg2_time4=0.1841805 eg2_time5=1.720446 eg2_level1=0 eg2_level2=1 eg2_level3=0.976378 eg2_level4=0.9055118 eg2_level5=0.8740157 eg3_amplitude=100 eg3_sustain=4 eg3_time1=0 eg3_time2=0 eg3_time3=0.0820692 eg3_time4=0.8184884 eg3_time5=0.642704 eg3_level1=0 eg3_level2=1 eg3_level3=0.4156189 eg3_level4=0 eg3_level5=0 amplitude_cc16=27.8740157 ampeg_attack=0 ampeg_release=0.642704 eg4_time1=0 eg4_time2=0 eg4_time3=0.0820692 eg4_time4=0.8184884 eg4_time5=0.642704 eg4_level1=1 eg4_level2=1 eg4_level3=1 eg4_level4=1 eg4_level5=1
<region>sample=../Sample/Wave1186.wav lokey=103 hikey=103 pitch_keycenter=89 tune=15 loop_mode=loop_continuous loop_start=9649 loop_end=10986 pan=0 eg2_cutoff=4864 eg2_sustain=4 eg2_time1=0 eg2_time2=0 eg2_time3=0.0489896 eg2_time4=0.1841805 eg2_time5=1.720446 eg2_level1=0 eg2_level2=1 eg2_level3=0.976378 eg2_level4=0.9055118 eg2_level5=0.8740157 eg3_amplitude=100 eg3_sustain=4 eg3_time1=0 eg3_time2=0 eg3_time3=0.0806303 eg3_time4=0.8041386 eg3_time5=0.631436 eg3_level1=0 eg3_level2=1 eg3_level3=0.4156189 eg3_level4=0 eg3_level5=0 amplitude_cc16=26.3254593 ampeg_attack=0 ampeg_release=0.631436 eg4_time1=0 eg4_time2=0 eg4_time3=0.0806303 eg4_time4=0.8041386 eg4_time5=0.631436 eg4_level1=1 eg4_level2=1 eg4_level3=1 eg4_level4=1 eg4_level5=1
<region>sample=../Sample/Wave1186.wav lokey=104 hikey=104 pitch_keycenter=89 tune=15 loop_mode=loop_continuous loop_start=9649 loop_end=10986 pan=0 eg2_cutoff=4864 eg2_sustain=4 eg2_time1=0 eg2_time2=0 eg2_time3=0.0489896 eg2_time4=0.1841805 eg2_time5=1.720446 eg2_level1=0 eg2_level2=1 eg2_level3=0.976378 eg2_level4=0.9055118 eg2_level5=0.8740157 eg3_amplitude=100 eg3_sustain=4 eg3_time1=0 eg3_time2=0 eg3_time3=0.0792167 eg3_time4=0.7900404 eg3_time5=0.6203656 eg3_level1=0 eg3_level2=1 eg3_level3=0.4156189 eg3_level4=0 eg3_level5=0 amplitude_cc16=24.7769029 ampeg_attack=0 ampeg_release=0.6203656 eg4_time1=0 eg4_time2=0 eg4_time3=0.0792167 eg4_time4=0.7900404 eg4_time5=0.6203656 eg4_level1=1 eg4_level2=1 eg4_level3=1 eg4_level4=1 eg4_level5=1
<region>sample=../Sample/Wave1186.wav lokey=105 hikey=105 pitch_keycenter=89 tune=15 loop_mode=loop_continuous loop_start=9649 loop_end=10986 pan=0 eg2_cutoff=4864 eg2_sustain=4 eg2_time1=0 eg2_time2=0 eg2_time3=0.0489896 eg2_time4=0.1841805 eg2_time5=1.720446 eg2_level1=0 eg2_level2=1 eg2_level3=0.976378 eg2_level4=0.9055118 eg2_level5=0.8740157 eg3_amplitude=100 eg3_sustain=4 eg3_time1=0 eg3_time2=0 eg3_time3=0.0778279 eg3_time4=0.7761893 eg3_time5=0.6094893 eg3_level1=0 eg3_level2=1 eg3_level3=0.4156189 eg3_level4=0 eg3_level5=0 amplitude_cc16=23.2283465 ampeg_attack=0 ampeg_release=0.6094893 eg4_time1=0 eg4_time2=0 eg4_time3=0.0778279 eg4_time4=0.7761893 eg4_time5=0.6094893 eg4_level1=1 eg4_level2=1 eg4_level3=1 eg4_level4=1 eg4_level5=1
<region>sample=../Sample/Wave1186.wav lokey=106 hikey=106 pitch_keycenter=89 tune=15 loop_mode=loop_continuous loop_start=9649 loop_end=10986 pan=0 eg2_cutoff=4864 eg2_sustain=4 eg2_time1=0 eg2_time2=0 eg2_time3=0.0489896 eg2_time4=0.1841805 eg2_time5=1.720446 eg2_level1=0 eg2_level2=1 eg2_level3=0.976378 eg2_level4=0.9055118 eg2_level5=0.8740157 eg3_amplitude=100 eg3_sustain=4 eg3_time1=0 eg3_time2=0 eg3_time3=0.0764634 eg3_time4=0.7625811 eg3_time5=0.5988037 eg3_level1=0 eg3_level2=1 eg3_level3=0.4156189 eg3_level4=0 eg3_level5=0 amplitude_cc16=21.67979 ampeg_attack=0 ampeg_release=0.5988037 eg4_time1=0 eg4_time2=0 eg4_time3=0.0764634 eg4_time4=0.7625811 eg4_time5=0.5988037 eg4_level1=1 eg4_level2=1 eg4_level3=1 eg4_level4=1 eg4_level5=1
<region>sample=../Sample/Wave1186.wav lokey=107 hikey=107 pitch_keycenter=89 tune=15 loop_mode=loop_continuous loop_start=9649 loop_end=10986 pan=0 eg2_cutoff=4864 eg2_sustain=4 eg2_time1=0 eg2_time2=0 eg2_time3=0.0489896 eg2_time4=0.1841805 eg2_time5=1.720446 eg2_level1=0 eg2_level2=1 eg2_level3=0.976378 eg2_level4=0.9055118 eg2_level5=0.8740157 eg3_amplitude=100 eg3_sustain=4 eg3_time1=0 eg3_time2=0 eg3_time3=0.0751228 eg3_time4=0.7492114 eg3_time5=0.5883054 eg3_level1=0 eg3_level2=1 eg3_level3=0.4156189 eg3_level4=0 eg3_level5=0 amplitude_cc16=20.1312336 ampeg_attack=0 ampeg_release=0.5883054 eg4_time1=0 eg4_time2=0 eg4_time3=0.0751228 eg4_time4=0.7492114 eg4_time5=0.5883054 eg4_level1=1 eg4_level2=1 eg4_level3=1 eg4_level4=1 eg4_level5=1
<region>sample=../Sample/Wave1116.wav lokey=108 hikey=108 pitch_keycenter=104 tune=22 loop_mode=loop_continuous loop_start=1166 loop_end=1891 pan=0 eg2_cutoff=4864 eg2_sustain=4 eg2_time1=0 eg2_time2=0 eg2_time3=0.0489896 eg2_time4=0.1841805 eg2_time5=1.720446 eg2_level1=0 eg2_level2=1 eg2_level3=0.976378 eg2_level4=0.9055118 eg2_level5=0.8740157 eg3_amplitude=100 eg3_sustain=4 eg3_time1=0 eg3_time2=0 eg3_time3=0.0738058 eg3_time4=0.7360762 eg3_time5=0.5779912 eg3_level1=0 eg3_level2=1 eg3_level3=0.4156189 eg3_level4=0 eg3_level5=0 amplitude_cc16=18.5826772 ampeg_attack=0 ampeg_release=0.5779912 eg4_time1=0 eg4_time2=0 eg4_time3=0.0738058 eg4_time4=0.7360762 eg4_time5=0.5779912 eg4_level1=1 eg4_level2=1 eg4_level3=1 eg4_level4=1 eg4_level5=1
<region>sample=../Sample/Wave1116.wav lokey=109 hikey=109 pitch_keycenter=104 tune=22 loop_mode=loop_continuous loop_start=1166 loop_end=1891 pan=0 eg2_cutoff=4864 eg2_sustain=4 eg2_time1=0 eg2_time2=0 eg2_time3=0.0489896 eg2_time4=0.1841805 eg2_time5=1.720446 eg2_level1=0 eg2_level2=1 eg2_level3=0.976378 eg2_level4=0.9055118 eg2_level5=0.8740157 eg3_amplitude=100 eg3_sustain=4 eg3_time1=0 eg3_time2=0 eg3_time3=0.0725118 eg3_time4=0.7231712 eg3_time5=0.5678578 eg3_level1=0 eg3_level2=1 eg3_level3=0.4156189 eg3_level4=0 eg3_level5=0 amplitude_cc16=17.0341207 ampeg_attack=0 ampeg_release=0.5678578 eg4_time1=0 eg4_time2=0 eg4_time3=0.0725118 eg4_time4=0.7231712 eg4_time5=0.5678578 eg4_level1=1 eg4_level2=1 eg4_level3=1 eg4_level4=1 eg4_level5=1
<region>sample=../Sample/Wave1116.wav lokey=110 hikey=110 pitch_keycenter=104 tune=22 loop_mode=loop_continuous loop_start=1166 loop_end=1891 pan=0 eg2_cutoff=4864 eg2_sustain=4 eg2_time1=0 eg2_time2=0 eg2_time3=0.0489896 eg2_time4=0.1841805 eg2_time5=1.720446 eg2_level1=0 eg2_level2=1 eg2_level3=0.976378 eg2_level4=0.9055118 eg2_level5=0.8740157 eg3_amplitude=100 eg3_sustain=4 eg3_time1=0 eg3_time2=0 eg3_time3=0.0712405 eg3_time4=0.7104925 eg3_time5=0.557902 eg3_level1=0 eg3_level2=1 eg3_level3=0.4156189 eg3_level4=0 eg3_level5=0 amplitude_cc16=15.4855643 ampeg_attack=0 ampeg_release=0.557902 eg4_time1=0 eg4_time2=0 eg4_time3=0.0712405 eg4_time4=0.7104925 eg4_time5=0.557902 eg4_level1=1 eg4_level2=1 eg4_level3=1 eg4_level4=1 eg4_level5=1
<region>sample=../Sample/Wave1116.wav lokey=111 hikey=111 pitch_keycenter=104 tune=22 loop_mode=loop_continuous loop_start=1166 loop_end=1891 pan=0 eg2_cutoff=4864 eg2_sustain=4 eg2_time1=0 eg2_time2=0 eg2_time3=0.0489896 eg2_time4=0.1841805 eg2_time5=1.720446 eg2_level1=0 eg2_level2=1 eg2_level3=0.976378 eg2_level4=0.9055118 eg2_level5=0.8740157 eg3_amplitude=100 eg3_sustain=4 eg3_time1=0 eg3_time2=0 eg3_time3=0.0699915 eg3_time4=0.6980361 eg3_time5=0.5481208 eg3_level1=0 eg3_level2=1 eg3_level3=0.4156189 eg3_level4=0 eg3_level5=0 amplitude_cc16=13.9370079 ampeg_attack=0 ampeg_release=0.5481208 eg4_time1=0 eg4_time2=0 eg4_time3=0.0699915 eg4_time4=0.6980361 eg4_time5=0.5481208 eg4_level1=1 eg4_level2=1 eg4_level3=1 eg4_level4=1 eg4_level5=1
<region>sample=../Sample/Wave1116.wav lokey=112 hikey=112 pitch_keycenter=104 tune=22 loop_mode=loop_continuous loop_start=1166 loop_end=1891 pan=0 eg2_cutoff=4864 eg2_sustain=4 eg2_time1=0 eg2_time2=0 eg2_time3=0.0489896 eg2_time4=0.1841805 eg2_time5=1.720446 eg2_level1=0 eg2_level2=1 eg2_level3=0.976378 eg2_level4=0.9055118 eg2_level5=0.8740157 eg3_amplitude=100 eg3_sustain=4 eg3_time1=0 eg3_time2=0 eg3_time3=0.0687644 eg3_time4=0.6857981 eg3_time5=0.5385111 eg3_level1=0 eg3_level2=1 eg3_level3=0.4156189 eg3_level4=0 eg3_level5=0 amplitude_cc16=12.3884514 ampeg_attack=0 ampeg_release=0.5385111 eg4_time1=0 eg4_time2=0 eg4_time3=0.0687644 eg4_time4=0.6857981 eg4_time5=0.5385111 eg4_level1=1 eg4_level2=1 eg4_level3=1 eg4_level4=1 eg4_level5=1
<region>sample=../Sample/Wave1116.wav lokey=113 hikey=113 pitch_keycenter=104 tune=22 loop_mode=loop_continuous loop_start=1166 loop_end=1891 pan=0 eg2_cutoff=4864 eg2_sustain=4 eg2_time1=0 eg2_time2=0 eg2_time3=0.0489896 eg2_time4=0.1841805 eg2_time5=1.720446 eg2_level1=0 eg2_level2=1 eg2_level3=0.976378 eg2_level4=0.9055118 eg2_level5=0.8740157 eg3_amplitude=100 eg3_sustain=4 eg3_time1=0 eg3_time2=0 eg3_time3=0.0675588 eg3_time4=0.6737746 eg3_time5=0.5290699 eg3_level1=0 eg3_level2=1 eg3_level3=0.4156189 eg3_level4=0 eg3_level5=0 amplitude_cc16=10.839895 ampeg_attack=0 ampeg_release=0.5290699 eg4_time1=0 eg4_time2=0 eg4_time3=0.0675588 eg4_time4=0.6737746 eg4_time5=0.5290699 eg4_level1=1 eg4_level2=1 eg4_level3=1 eg4_level4=1 eg4_level5=1
<region>sample=../Sample/Wave1116.wav lokey=114 hikey=114 pitch_keycenter=104 tune=22 loop_mode=loop_continuous loop_start=1166 loop_end=1891 pan=0 eg2_cutoff=4864 eg2_sustain=4 eg2_time1=0 eg2_time2=0 eg2_time3=0.0489896 eg2_time4=0.1841805 eg2_time5=1.720446 eg2_level1=0 eg2_level2=1 eg2_level3=0.976378 eg2_level4=0.9055118 eg2_level5=0.8740157 eg3_amplitude=100 eg3_sustain=4 eg3_time1=0 eg3_time2=0 eg3_time3=0.0663744 eg3_time4=0.6619619 eg3_time5=0.5197942 eg3_level1=0 eg3_level2=1 eg3_level3=0.4156189 eg3_level4=0 eg3_level5=0 amplitude_cc16=9.2913386 ampeg_attack=0 ampeg_release=0.5197942 eg4_time1=0 eg4_time2=0 eg4_time3=0.0663744 eg4_time4=0.6619619 eg4_time5=0.5197942 eg4_level1=1 eg4_level2=1 eg4_level3=1 eg4_level4=1 eg4_level5=1
<region>sample=../Sample/Wave1116.wav lokey=115 hikey=115 pitch_keycenter=104 tune=22 loop_mode=loop_continuous loop_start=1166 loop_end=1891 pan=0 eg2_cutoff=4864 eg2_sustain=4 eg2_time1=0 eg2_time2=0 eg2_time3=0.0489896 eg2_time4=0.1841805 eg2_time5=1.720446 eg2_level1=0 eg2_level2=1 eg2_level3=0.976378 eg2_level4=0.9055118 eg2_level5=0.8740157 eg3_amplitude=100 eg3_sustain=4 eg3_time1=0 eg3_time2=0 eg3_time3=0.0652107 eg3_time4=0.6503563 eg3_time5=0.5106811 eg3_level1=0 eg3_level2=1 eg3_level3=0.4156189 eg3_level4=0 eg3_level5=0 amplitude_cc16=7.7427822 ampeg_attack=0 ampeg_release=0.5106811 eg4_time1=0 eg4_time2=0 eg4_time3=0.0652107 eg4_time4=0.6503563 eg4_time5=0.5106811 eg4_level1=1 eg4_level2=1 eg4_level3=1 eg4_level4=1 eg4_level5=1
<region>sample=../Sample/Wave1116.wav lokey=116 hikey=116 pitch_keycenter=104 tune=22 loop_mode=loop_continuous loop_start=1166 loop_end=1891 pan=0 eg2_cutoff=4864 eg2_sustain=4 eg2_time1=0 eg2_time2=0 eg2_time3=0.0489896 eg2_time4=0.1841805 eg2_time5=1.720446 eg2_level1=0 eg2_level2=1 eg2_level3=0.976378 eg2_level4=0.9055118 eg2_level5=0.8740157 eg3_amplitude=100 eg3_sustain=4 eg3_time1=0 eg3_time2=0 eg3_time3=0.0640674 eg3_time4=0.6389542 eg3_time5=0.5017278 eg3_level1=0 eg3_level2=1 eg3_level3=0.4156189 eg3_level4=0 eg3_level5=0 amplitude_cc16=6.1942257 ampeg_attack=0 ampeg_release=0.5017278 eg4_time1=0 eg4_time2=0 eg4_time3=0.0640674 eg4_time4=0.6389542 eg4_time5=0.5017278 eg4_level1=1 eg4_level2=1 eg4_level3=1 eg4_level4=1 eg4_level5=1
<region>sample=../Sample/Wave1116.wav lokey=117 hikey=117 pitch_keycenter=104 tune=22 loop_mode=loop_continuous loop_start=1166 loop_end=1891 pan=0 eg2_cutoff=4864 eg2_sustain=4 eg2_time1=0 eg2_time2=0 eg2_time3=0.0489896 eg2_time4=0.1841805 eg2_time5=1.720446 eg2_level1=0 eg2_level2=1 eg2_level3=0.976378 eg2_level4=0.9055118 eg2_level5=0.8740157 eg3_amplitude=100 eg3_sustain=4 eg3_time1=0 eg3_time2=0 eg3_time3=0.0629442 eg3_time4=0.627752 eg3_time5=0.4929315 eg3_level1=0 eg3_level2=1 eg3_level3=0.4156189 eg3_level4=0 eg3_level5=0 amplitude_cc16=4.6456693 ampeg_attack=0 ampeg_release=0.4929315 eg4_time1=0 eg4_time2=0 eg4_time3=0.0629442 eg4_time4=0.627752 eg4_time5=0.4929315 eg4_level1=1 eg4_level2=1 eg4_level3=1 eg4_level4=1 eg4_level5=1
<region>sample=../Sample/Wave1116.wav lokey=118 hikey=118 pitch_keycenter=104 tune=22 loop_mode=loop_continuous loop_start=1166 loop_end=1891 pan=0 eg2_cutoff=4864 eg2_sustain=4 eg2_time1=0 eg2_time2=0 eg2_time3=0.0489896 eg2_time4=0.1841805 eg2_time5=1.720446 eg2_level1=0 eg2_level2=1 eg2_level3=0.976378 eg2_level4=0.9055118 eg2_level5=0.8740157 eg3_amplitude=100 eg3_sustain=4 eg3_time1=0 eg3_time2=0 eg3_time3=0.0618406 eg3_time4=0.6167462 eg3_time5=0.4842893 eg3_level1=0 eg3_level2=1 eg3_level3=0.4156189 eg3_level4=0 eg3_level5=0 amplitude_cc16=3.0971129 ampeg_attack=0 ampeg_release=0.4842893 eg4_time1=0 eg4_time2=0 eg4_time3=0.0618406 eg4_time4=0.6167462 eg4_time5=0.4842893 eg4_level1=1 eg4_level2=1 eg4_level3=1 eg4_level4=1 eg4_level5=1
<region>sample=../Sample/Wave1116.wav lokey=119 hikey=119 pitch_keycenter=104 tune=22 loop_mode=loop_continuous loop_start=1166 loop_end=1891 pan=0 eg2_cutoff=4864 eg2_sustain=4 eg2_time1=0 eg2_time2=0 eg2_time3=0.0489896 eg2_time4=0.1841805 eg2_time5=1.720446 eg2_level1=0 eg2_level2=1 eg2_level3=0.976378 eg2_level4=0.9055118 eg2_level5=0.8740157 eg3_amplitude=100 eg3_sustain=4 eg3_time1=0 eg3_time2=0 eg3_time3=0.0607565 eg3_time4=0.6059333 eg3_time5=0.4757987 eg3_level1=0 eg3_level2=1 eg3_level3=0.4156189 eg3_level4=0 eg3_level5=0 amplitude_cc16=1.5485564 ampeg_attack=0 ampeg_release=0.4757987 eg4_time1=0 eg4_time2=0 eg4_time3=0.0607565 eg4_time4=0.6059333 eg4_time5=0.4757987 eg4_level1=1 eg4_level2=1 eg4_level3=1 eg4_level4=1 eg4_level5=1
<region>sample=../Sample/Wave1116.wav lokey=120 hikey=120 pitch_keycenter=104 tune=22 loop_mode=loop_continuous loop_start=1166 loop_end=1891 pan=0 eg2_cutoff=4864 eg2_sustain=4 eg2_time1=0 eg2_time2=0 eg2_time3=0.0489896 eg2_time4=0.1841805 eg2_time5=1.720446 eg2_level1=0 eg2_level2=1 eg2_level3=0.976378 eg2_level4=0.9055118 eg2_level5=0.8740157 eg3_amplitude=100 eg3_sustain=4 eg3_time1=0 eg3_time2=0 eg3_time3=0.0596913 eg3_time4=0.59531 eg3_time5=0.467457 eg3_level1=0 eg3_level2=1 eg3_level3=0.4156189 eg3_level4=0 eg3_level5=0 amplitude_cc16=0 ampeg_attack=0 ampeg_release=0.467457 eg4_time1=0 eg4_time2=0 eg4_time3=0.0596913 eg4_time4=0.59531 eg4_time5=0.467457 eg4_level1=1 eg4_level2=1 eg4_level3=1 eg4_level4=1 eg4_level5=1
<region>sample=../Sample/Wave1116.wav lokey=121 hikey=121 pitch_keycenter=104 tune=22 loop_mode=loop_continuous loop_start=1166 loop_end=1891 pan=0 eg2_cutoff=4864 eg2_sustain=4 eg2_time1=0 eg2_time2=0 eg2_time3=0.0489896 eg2_time4=0.1841805 eg2_time5=1.720446 eg2_level1=0 eg2_level2=1 eg2_level3=0.976378 eg2_level4=0.9055118 eg2_level5=0.8740157 eg3_amplitude=100 eg3_sustain=4 eg3_time1=0 eg3_time2=0 eg3_time3=0.0586448 eg3_time4=0.584873 eg3_time5=0.4592615 eg3_level1=0 eg3_level2=1 eg3_level3=0.4156189 eg3_level4=0 eg3_level5=0 amplitude_cc16=0 ampeg_attack=0 ampeg_release=0.4592615 eg4_time1=0 eg4_time2=0 eg4_time3=0.0586448 eg4_time4=0.584873 eg4_time5=0.4592615 eg4_level1=1 eg4_level2=1 eg4_level3=1 eg4_level4=1 eg4_level5=1
<region>sample=../Sample/Wave1116.wav lokey=122 hikey=122 pitch_keycenter=104 tune=22 loop_mode=loop_continuous loop_start=1166 loop_end=1891 pan=0 eg2_cutoff=4864 eg2_sustain=4 eg2_time1=0 eg2_time2=0 eg2_time3=0.0489896 eg2_time4=0.1841805 eg2_time5=1.720446 eg2_level1=0 eg2_level2=1 eg2_level3=0.976378 eg2_level4=0.9055118 eg2_level5=0.8740157 eg3_amplitude=100 eg3_sustain=4 eg3_time1=0 eg3_time2=0 eg3_time3=0.0576166 eg3_time4=0.5746189 eg3_time5=0.4512096 eg3_level1=0 eg3_level2=1 eg3_level3=0.4156189 eg3_level4=0 eg3_level5=0 amplitude_cc16=0 ampeg_attack=0 ampeg_release=0.4512096 eg4_time1=0 eg4_time2=0 eg4_time3=0.0576166 eg4_time4=0.5746189 eg4_time5=0.4512096 eg4_level1=1 eg4_level2=1 eg4_level3=1 eg4_level4=1 eg4_level5=1
<region>sample=../Sample/Wave1116.wav lokey=123 hikey=123 pitch_keycenter=104 tune=22 loop_mode=loop_continuous loop_start=1166 loop_end=1891 pan=0 eg2_cutoff=4864 eg2_sustain=4 eg2_time1=0 eg2_time2=0 eg2_time3=0.0489896 eg2_time4=0.1841805 eg2_time5=1.720446 eg2_level1=0 eg2_level2=1 eg2_level3=0.976378 eg2_level4=0.9055118 eg2_level5=0.8740157 eg3_amplitude=100 eg3_sustain=4 eg3_time1=0 eg3_time2=0 eg3_time3=0.0566064 eg3_time4=0.5645447 eg3_time5=0.443299 eg3_level1=0 eg3_level2=1 eg3_level3=0.4156189 eg3_level4=0 eg3_level5=0 amplitude_cc16=0 ampeg_attack=0 ampeg_release=0.443299 eg4_time1=0 eg4_time2=0 eg4_time3=0.0566064 eg4_time4=0.5645447 eg4_time5=0.443299 eg4_level1=1 eg4_level2=1 eg4_level3=1 eg4_level4=1 eg4_level5=1
<region>sample=../Sample/Wave1116.wav lokey=124 hikey=124 pitch_keycenter=104 tune=22 loop_mode=loop_continuous loop_start=1166 loop_end=1891 pan=0 eg2_cutoff=4864 eg2_sustain=4 eg2_time1=0 eg2_time2=0 eg2_time3=0.0489896 eg2_time4=0.1841805 eg2_time5=1.720446 eg2_level1=0 eg2_level2=1 eg2_level3=0.976378 eg2_level4=0.9055118 eg2_level5=0.8740157 eg3_amplitude=100 eg3_sustain=4 eg3_time1=0 eg3_time2=0 eg3_time3=0.055614 eg3_time4=0.554647 eg3_time5=0.435527 eg3_level1=0 eg3_level2=1 eg3_level3=0.4156189 eg3_level4=0 eg3_level5=0 amplitude_cc16=0 ampeg_attack=0 ampeg_release=0.435527 eg4_time1=0 eg4_time2=0 eg4_time3=0.055614 eg4_time4=0.554647 eg4_time5=0.435527 eg4_level1=1 eg4_level2=1 eg4_level3=1 eg4_level4=1 eg4_level5=1
<region>sample=../Sample/Wave1116.wav lokey=125 hikey=125 pitch_keycenter=104 tune=22 loop_mode=loop_continuous loop_start=1166 loop_end=1891 pan=0 eg2_cutoff=4864 eg2_sustain=4 eg2_time1=0 eg2_time2=0 eg2_time3=0.0489896 eg2_time4=0.1841805 eg2_time5=1.720446 eg2_level1=0 eg2_level2=1 eg2_level3=0.976378 eg2_level4=0.9055118 eg2_level5=0.8740157 eg3_amplitude=100 eg3_sustain=4 eg3_time1=0 eg3_time2=0 eg3_time3=0.054639 eg3_time4=0.5449229 eg3_time5=0.4278913 eg3_level1=0 eg3_level2=1 eg3_level3=0.4156189 eg3_level4=0 eg3_level5=0 amplitude_cc16=0 ampeg_attack=0 ampeg_release=0.4278913 eg4_time1=0 eg4_time2=0 eg4_time3=0.054639 eg4_time4=0.5449229 eg4_time5=0.4278913 eg4_level1=1 eg4_level2=1 eg4_level3=1 eg4_level4=1 eg4_level5=1
<region>sample=../Sample/Wave1116.wav lokey=126 hikey=126 pitch_keycenter=104 tune=22 loop_mode=loop_continuous loop_start=1166 loop_end=1891 pan=0 eg2_cutoff=4864 eg2_sustain=4 eg2_time1=0 eg2_time2=0 eg2_time3=0.0489896 eg2_time4=0.1841805 eg2_time5=1.720446 eg2_level1=0 eg2_level2=1 eg2_level3=0.976378 eg2_level4=0.9055118 eg2_level5=0.8740157 eg3_amplitude=100 eg3_sustain=4 eg3_time1=0 eg3_time2=0 eg3_time3=0.053681 eg3_time4=0.5353692 eg3_time5=0.4203895 eg3_level1=0 eg3_level2=1 eg3_level3=0.4156189 eg3_level4=0 eg3_level5=0 amplitude_cc16=0 ampeg_attack=0 ampeg_release=0.4203895 eg4_time1=0 eg4_time2=0 eg4_time3=0.053681 eg4_time4=0.5353692 eg4_time5=0.4203895 eg4_level1=1 eg4_level2=1 eg4_level3=1 eg4_level4=1 eg4_level5=1
<region>sample=../Sample/Wave1116.wav lokey=127 hikey=127 pitch_keycenter=104 tune=22 loop_mode=loop_continuous loop_start=1166 loop_end=1891 pan=0 eg2_cutoff=4864 eg2_sustain=4 eg2_time1=0 eg2_time2=0 eg2_time3=0.0489896 eg2_time4=0.1841805 eg2_time5=1.720446 eg2_level1=0 eg2_level2=1 eg2_level3=0.976378 eg2_level4=0.9055118 eg2_level5=0.8740157 eg3_amplitude=100 eg3_sustain=4 eg3_time1=0 eg3_time2=0 eg3_time3=0.0527399 eg3_time4=0.5259831 eg3_time5=0.4130192 eg3_level1=0 eg3_level2=1 eg3_level3=0.4156189 eg3_level4=0 eg3_level5=0 amplitude_cc16=0 ampeg_attack=0 ampeg_release=0.4130192 eg4_time1=0 eg4_time2=0 eg4_time3=0.0527399 eg4_time4=0.5259831 eg4_time5=0.4130192 eg4_level1=1 eg4_level2=1 eg4_level3=1 eg4_level4=1 eg4_level5=1
<curve>curve_index=77 v000=-1 v009=-0.2318432 v017=-0.1682223 v025=-0.1266754 v033=-0.0943052 v041=-0.0667365 v049=-0.0418818 v057=-0.0185085 v065=0.004257 v073=0.0271599 v081=0.0509737 v089=0.0766712 v097=0.1057219 v105=0.1408034 v113=0.1881379 v121=0.2706334 v127=1
<curve>curve_index=133 v000=-0.4724409 v127=0.5275591
<curve>curve_index=201 v000=-1 v127=0
<curve>curve_index=202 v000=-1 v001=-0.9997494 v009=-0.991513 v017=-0.9762171 v025=-0.9551519 v033=-0.92858 v041=-0.8964065 v049=-0.8583211 v057=-0.8138437 v065=-0.7623383 v073=-0.7030102 v081=-0.6348936 v089=-0.5568321 v097=-0.467451 v105=-0.3651233 v113=-0.2479268 v121=-0.1135922 v127=0
<curve>curve_index=203 v000=-1 v001=-1 v009=-0.9999675 v017=-0.9996583 v025=-0.9985752 v033=-0.9960114 v041=-0.9910577 v049=-0.9825829 v057=-0.9691807 v065=-0.9490722 v073=-0.9199401 v081=-0.8786619 v089=-0.82088 v097=-0.740303 v105=-0.6275479 v113=-0.4681713 v121=-0.2392198 v127=0
<curve>curve_index=204 v000=-1 v001=-0.9323558 v009=-0.741349 v017=-0.6263141 v025=-0.5373342 v033=-0.4635977 v041=-0.4002693 v049=-0.3446331 v057=-0.2949675 v065=-0.2500953 v073=-0.2091682 v081=-0.1715511 v089=-0.1367543 v097=-0.1043909 v105=-0.0741496 v113=-0.0457759 v121=-0.0190586 v127=0
<curve>curve_index=205 v000=-1 v001=-0.6880006 v009=-0.4427647 v017=-0.3466618 v025=-0.2834429 v033=-0.2361238 v041=-0.1983568 v049=-0.1670059 v057=-0.1402727 v065=-0.1170246 v073=-0.0964998 v081=-0.0781602 v089=-0.061612 v097=-0.0465575 v105=-0.0327669 v113=-0.0200585 v121=-0.0082866 v127=0
<curve>curve_index=206 v000=-1 v001=-0.9992164 v009=-0.9919382 v017=-0.9822354 v025=-0.9686809 v033=-0.9484937 v041=-0.9155493 v049=-0.8540328 v057=-0.7175582 v065=-0.4426581 v073=-0.2171001 v081=-0.1176907 v089=-0.0699434 v097=-0.0428826 v105=-0.0256514 v113=-0.0137704 v121=-0.0051009 v127=0
<curve>curve_index=207 v000=-1 v001=-0.9416361 v009=-0.7228567 v017=-0.6420575 v025=-0.5979344 v033=-0.568666 v041=-0.5466723 v049=-0.5285483 v057=-0.5124439 v065=-0.497147 v073=-0.4816686 v081=-0.4649713 v089=-0.4456677 v097=-0.4214805 v105=-0.3879226 v113=-0.3341321 v121=-0.2242261 v127=0
